<?xml version="1.0" encoding="UTF-8"?>
<svg id="Calque_2" data-name="Calque 2" xmlns="http://www.w3.org/2000/svg" viewBox="0 0 988.35 551.9">
  <defs>
    <style>
      .cls-1 {
        fill: #fff;
      }
    </style>
  </defs>
  <g id="Logo_Boule_Noutic" data-name="Logo Boule Noutic">
    <g>
      <path class="cls-1" d="m556.22,158.26h15.64c.6,0,1.09-.49,1.09-1.09v-47.22c0-.6.49-1.09,1.09-1.09h20.82c.6,0,1.09-.49,1.09-1.09v-14.02c0-.6-.49-1.09-1.09-1.09h-20.82c-.6,0-1.09-.49-1.09-1.09v-29.4c0-.6.49-1.09,1.09-1.09h27.14c.6,0,1.09-.49,1.09-1.09v-14.02c0-.6-.49-1.09-1.09-1.09h-44.96c-.6,0-1.09.49-1.09,1.09v111.2c0,.6.49,1.09,1.09,1.09Z"/>
      <path class="cls-1" d="m659.43,157.17v-14.02c0-.6-.49-1.09-1.09-1.09h-28.59c-.6,0-1.09-.49-1.09-1.09v-32.65c0-.6.49-1.09,1.09-1.09h22.28c.6,0,1.09-.49,1.09-1.09v-14.02c0-.6-.49-1.09-1.09-1.09h-22.28c-.6,0-1.09-.49-1.09-1.09v-27.79c0-.6.49-1.09,1.09-1.09h28.59c.6,0,1.09-.49,1.09-1.09v-14.02c0-.6-.49-1.09-1.09-1.09h-46.41c-.6,0-1.09.49-1.09,1.09v111.2c0,.6.49,1.09,1.09,1.09h46.41c.6,0,1.09-.49,1.09-1.09Z"/>
      <path class="cls-1" d="m692.47,159.87c17.49,0,26.89-10.37,26.89-28.83,0-14.09-4.86-23.32-19.76-36.44-11.66-10.2-15.71-16.04-15.71-24.29,0-7.77,3.4-10.85,9.07-10.85s8.91,3.08,8.91,11.17v4.74c0,.6.49,1.09,1.09,1.09h15.75v-4.7c0-18.14-8.58-28.51-25.91-28.51s-26.56,10.37-26.56,28.18c0,12.96,5.02,22.35,19.92,35.47,11.66,10.2,15.55,16.04,15.55,25.43,0,8.42-3.72,11.34-9.4,11.34s-9.23-2.92-9.23-11.01v-6.69c0-.6-.49-1.09-1.09-1.09h-14.67c-.6,0-1.09.49-1.09,1.09v5.39c0,18.14,8.75,28.5,26.24,28.5Z"/>
      <path class="cls-1" d="m760.97,157.17V62.17c0-.6.49-1.09,1.09-1.09h16.45c.6,0,1.09-.49,1.09-1.09v-14.02c0-.6-.49-1.09-1.09-1.09h-52.89c-.6,0-1.09.49-1.09,1.09v14.02c0,.6.49,1.09,1.09,1.09h16.45c.6,0,1.09.49,1.09,1.09v95c0,.6.49,1.09,1.09,1.09h15.64c.6,0,1.09-.49,1.09-1.09Z"/>
      <rect class="cls-1" x="788.18" y="44.88" width="17.82" height="113.37" rx="1.09" ry="1.09"/>
      <path class="cls-1" d="m855.53,157.33l16.84-111.2c.1-.66-.41-1.25-1.08-1.25h-14.14c-.55,0-1.01.4-1.08.94l-10.62,80.01c-.17,1.26-1.99,1.26-2.16,0l-10.62-80.01c-.07-.54-.53-.94-1.08-.94h-15.76c-.67,0-1.18.59-1.08,1.25l16.84,111.2c.08.53.54.93,1.08.93h21.77c.54,0,1-.39,1.08-.93Z"/>
      <path class="cls-1" d="m913.41,44.88h-22.28c-.53,0-.99.39-1.07.91l-18.11,111.2c-.11.66.4,1.26,1.07,1.26h14.29c.54,0,1-.4,1.08-.94l2.82-20.31c.08-.54.54-.94,1.08-.94h18.67c.54,0,1,.4,1.08.94l2.82,20.31c.08.54.54.94,1.08.94h15.59c.67,0,1.18-.6,1.07-1.26l-18.11-111.2c-.09-.53-.54-.91-1.07-.91Zm-5.02,75.79h-13.53c-.66,0-1.17-.58-1.08-1.24l6.7-48.25c.17-1.25,1.98-1.25,2.16,0l6.83,48.25c.09.65-.42,1.24-1.08,1.24Z"/>
      <path class="cls-1" d="m987.26,142.06h-27.14c-.6,0-1.09-.49-1.09-1.09V45.97c0-.6-.49-1.09-1.09-1.09h-15.64c-.6,0-1.09.49-1.09,1.09v111.2c0,.6.49,1.09,1.09,1.09h44.96c.6,0,1.09-.49,1.09-1.09v-14.02c0-.6-.49-1.09-1.09-1.09Z"/>
      <path class="cls-1" d="m609.92,193.38h-13.69c-.6,0-1.09.49-1.09,1.09v58.42c0,1.27-1.81,1.51-2.14.28l-15.62-58.98c-.13-.48-.56-.81-1.05-.81h-20.1c-.6,0-1.09.49-1.09,1.09v111.2c0,.6.49,1.09,1.09,1.09h13.7c.6,0,1.09-.49,1.09-1.09v-73.35c0-1.27,1.81-1.51,2.14-.28l19.67,73.91c.13.48.56.81,1.05.81h16.05c.6,0,1.09-.49,1.09-1.09v-111.2c0-.6-.49-1.09-1.09-1.09Z"/>
      <path class="cls-1" d="m650.03,191.77c-17.49,0-27.05,10.37-27.05,28.5v59.6c0,18.14,9.56,28.51,27.05,28.51s27.05-10.37,27.05-28.51v-59.6c0-18.14-9.56-28.5-27.05-28.5Zm9.23,89.24c0,8.1-3.56,11.18-9.23,11.18s-9.23-3.08-9.23-11.18v-61.87c0-8.1,3.56-11.18,9.23-11.18s9.23,3.08,9.23,11.18v61.87Z"/>
      <path class="cls-1" d="m740.45,193.38h-14.99c-.6,0-1.09.49-1.09,1.09v86.69c0,8.1-3.4,11.01-9.07,11.01s-9.07-2.91-9.07-11.01v-86.69c0-.6-.49-1.09-1.09-1.09h-15.64c-.6,0-1.09.49-1.09,1.09v85.4c0,18.14,9.07,28.51,26.56,28.51s26.56-10.37,26.56-28.51v-85.4c0-.6-.49-1.09-1.09-1.09Z"/>
      <path class="cls-1" d="m803.45,193.38h-52.89c-.6,0-1.09.49-1.09,1.09v14.02c0,.6.49,1.09,1.09,1.09h16.45c.6,0,1.09.49,1.09,1.09v95c0,.6.49,1.09,1.09,1.09h15.64c.6,0,1.09-.49,1.09-1.09v-95c0-.6.49-1.09,1.09-1.09h16.45c.6,0,1.09-.49,1.09-1.09v-14.02c0-.6-.49-1.09-1.09-1.09Z"/>
      <rect class="cls-1" x="813.12" y="193.38" width="17.82" height="113.37" rx="1.09" ry="1.09"/>
      <path class="cls-1" d="m869.15,191.77c-17.17,0-26.24,10.37-26.24,27.86v60.9c0,17.49,9.07,27.86,26.24,27.86s26.24-10.37,26.24-27.86v-14.14c0-.6-.49-1.09-1.09-1.09h-14.67c-.6,0-1.09.49-1.09,1.09v15.43c0,7.45-3.56,10.37-8.91,10.37s-8.91-2.91-8.91-10.37v-63.33c0-7.45,3.56-10.53,8.91-10.53s8.91,3.08,8.91,10.53v12.03c0,.6.49,1.09,1.09,1.09h14.67c.6,0,1.09-.49,1.09-1.09v-10.9c0-17.49-9.07-27.86-26.24-27.86Z"/>
      <path class="cls-1" d="m923.29,193.38h-15.64c-.6,0-1.09.49-1.09,1.09v15.64c0,.6.49,1.09,1.09,1.09h5.07l-6.3,17.99c-.25.71.28,1.45,1.03,1.45h6.04c.42,0,.8-.24.98-.62l9.8-20.38c.07-.15.11-.31.11-.47v-14.7c0-.6-.49-1.09-1.09-1.09Z"/>
      <path class="cls-1" d="m602.31,341.89h-48.37c-.6,0-1.08.48-1.08,1.08v14.03c0,.6.48,1.08,1.08,1.08h28.73c.77,0,1.29.78,1,1.49l-32.36,79.61c-.05.13-.08.27-.08.41v14.58c0,.6.48,1.08,1.08,1.08h49.99c.6,0,1.08-.48,1.08-1.08v-14.03c0-.6-.48-1.08-1.08-1.08h-30.35c-.77,0-1.29-.78-1-1.49l32.36-79.62c.05-.13.08-.27.08-.41v-14.58c0-.6-.48-1.08-1.08-1.08Z"/>
      <path class="cls-1" d="m614.19,341.89h15.65c.6,0,1.08.48,1.08,1.08v111.21c0,.6-.49,1.08-1.08,1.08h-15.65c-.6,0-1.08-.48-1.08-1.08v-111.21c0-.6.49-1.08,1.08-1.08Z"/>
      <path class="cls-1" d="m681.41,383.93c-.08-.27-.05-.55.07-.8l20.22-39.66c.37-.72-.16-1.57-.96-1.57h-15.68c-.42,0-.81.25-.98.63l-19.99,43.61c-.49,1.06-2.07.71-2.07-.45v-42.71c0-.6-.49-1.08-1.08-1.08h-15.65c-.6,0-1.08.48-1.08,1.08v111.21c0,.6.49,1.08,1.08,1.08h15.65c.6,0,1.08-.48,1.08-1.08v-34.29c0-.17.04-.34.12-.49l5.94-11.62c.45-.87,1.72-.75,2,.18l13.9,46.52c.14.46.56.77,1.04.77h16.36c.73,0,1.24-.7,1.04-1.39l-21-69.94Z"/>
      <path class="cls-1" d="m425.39,234.32c0-25.79-5.05-50.81-15.02-74.37-9.62-22.75-23.4-43.18-40.94-60.73-17.54-17.54-37.97-31.32-60.73-40.94-23.56-9.97-48.59-15.02-74.37-15.02s-50.81,5.05-74.37,15.02c-22.75,9.62-43.18,23.4-60.73,40.94-17.54,17.54-31.32,37.98-40.94,60.73-9.97,23.56-15.02,48.58-15.02,74.37,0,27.37,5.67,53.81,16.85,78.57,2.42,5.36,8.73,7.75,14.09,5.32,5.36-2.42,7.75-8.73,5.32-14.09-9.93-21.98-14.96-45.47-14.96-69.8,0-93.6,76.15-169.75,169.75-169.75s169.75,76.15,169.75,169.75c0,53.68-25.82,104.78-69.07,136.69-4.73,3.49-5.74,10.16-2.25,14.9,2.09,2.83,5.32,4.33,8.58,4.33,2.2,0,4.41-.68,6.32-2.08,23.58-17.4,43.13-40.32,56.54-66.29,6.85-13.26,12.12-27.32,15.68-41.79,3.66-14.89,5.52-30.28,5.52-45.75Z"/>
      <path class="cls-1" d="m365.79,302.08c5.3-10.26,9.38-21.14,12.13-32.34,2.83-11.52,4.27-23.44,4.27-35.41,0-19.96-3.91-39.32-11.63-57.56-7.45-17.61-18.11-33.42-31.69-47-13.58-13.58-29.39-24.24-47-31.69-18.24-7.71-37.6-11.62-57.56-11.62s-39.32,3.91-57.56,11.62c-17.61,7.45-33.42,18.11-47,31.69-13.58,13.58-24.24,29.39-31.68,47-7.72,18.24-11.63,37.6-11.63,57.56,0,21.18,4.39,41.64,13.04,60.81,2.42,5.36,8.73,7.75,14.09,5.32,5.36-2.42,7.75-8.73,5.32-14.1-7.4-16.39-11.15-33.9-11.15-52.04,0-69.79,56.78-126.56,126.56-126.56s126.56,56.78,126.56,126.56c0,40.02-19.25,78.12-51.5,101.91-4.74,3.49-5.74,10.16-2.25,14.9,2.09,2.83,5.32,4.33,8.58,4.33,2.2,0,4.41-.68,6.32-2.08,18.24-13.46,33.38-31.2,43.75-51.3Z"/>
      <path class="cls-1" d="m234.32,21.34c5.89,0,10.67-4.78,10.67-10.67s-4.78-10.67-10.67-10.67-10.67,4.78-10.67,10.67,4.78,10.67,10.67,10.67Z"/>
      <path class="cls-1" d="m127.83,49.88c5.1-2.95,6.85-9.47,3.9-14.58-2.95-5.1-9.47-6.85-14.58-3.91-5.1,2.95-6.85,9.47-3.91,14.58,2.95,5.1,9.47,6.85,14.58,3.91Z"/>
      <path class="cls-1" d="m49.88,127.83c2.95-5.1,1.2-11.63-3.91-14.58-5.1-2.95-11.63-1.2-14.58,3.91-2.95,5.1-1.2,11.63,3.91,14.58s11.63,1.2,14.58-3.91Z"/>
      <path class="cls-1" d="m10.67,223.65c-5.89,0-10.67,4.78-10.67,10.67s4.78,10.67,10.67,10.67,10.67-4.78,10.67-10.67-4.78-10.67-10.67-10.67Z"/>
      <path class="cls-1" d="m433.35,336.91c-5.1-2.95-11.63-1.2-14.58,3.91-2.95,5.1-1.2,11.63,3.91,14.58s11.63,1.2,14.58-3.91c2.95-5.1,1.2-11.63-3.91-14.58Z"/>
      <path class="cls-1" d="m457.98,223.65c-5.89,0-10.67,4.78-10.67,10.67s4.78,10.67,10.67,10.67,10.67-4.78,10.67-10.67-4.78-10.67-10.67-10.67Z"/>
      <path class="cls-1" d="m422.68,113.26c-5.1,2.95-6.85,9.47-3.91,14.58,2.95,5.1,9.47,6.85,14.58,3.91s6.85-9.47,3.91-14.58c-2.95-5.1-9.47-6.85-14.58-3.91Z"/>
      <path class="cls-1" d="m340.82,49.88c5.1,2.95,11.63,1.2,14.58-3.91,2.95-5.1,1.2-11.63-3.91-14.58s-11.63-1.2-14.58,3.91c-2.95,5.1-1.2,11.63,3.91,14.58Z"/>
      <path class="cls-1" d="m142.78,350.59c-19.58,0-32.47,16.52-32.47,36.1,0,42.5,67.57,77.45,78.39,83.09-26.99-2.21-48.93,40.59-56.79,58.24-2.06,4.62-3.12,9.61-3.12,14.67v7.85c0,.76.61,1.37,1.37,1.37h23.14c.68,0,1.23-.55,1.23-1.23v-11.98c0-.39-.17-.76-.45-1.01l-4.87-4.32c-.39-.35-.52-.91-.31-1.4,2.71-6.22,21.61-45.87,61.38-42.33,66.43,6.62-24.35-137.55-67.49-139.05Z"/>
      <path class="cls-1" d="m258.63,314.84c.79-.89.92-2.25.18-3.28l-4.05-5.65c-.63-.88-1.76-1.22-2.77-.87l-7.3-10.75,1.28-.93c.97-.71,1.19-2.06.49-3.04l-4.3-5.98c-.79-1.1-2.3-1.41-3.46-.7l-.88.54-6.13-9.04c-.4-.6-1.2-.77-1.82-.4l-1.99,1.2c-.65.39-.88,1.24-.5,1.9l5.34,9.46-31.92,19.47c-1.04.63-1.45,1.93-.97,3.05,1.09,2.54,2.21,4.81,3.2,6.68.59,1.11,1.93,1.6,3.09,1.12l14.44-5.87c.2-.08.39-.19.56-.31l17.86-13,5.45,9.66-40.7,16.53c-1.16.47-2.48.03-3.13-1.04-4.27-7.05-18.37-32.89-7.91-51.73,2.45-4.41,2.99-9.65,1.51-14.48-.95-3.1-1.71-6.41-2.57-10.39-.36-1.68-2.18-2.59-3.73-1.88-26.75,12.17-36.71,12.59-48.7,68-10.49,48.46-57.84,32.21-66.26,28.9-.52-.21-1.05.29-.88.82,5.21,16.08,22.52,20.81,31.7,22.19,1.71.26,3.44.38,5.17.38.48,0,.92-.28,1.15-.7,1.38-2.55,3.01-4.92,4.87-7.09,7.03-8.16,16.91-12.65,27.82-12.65h.19c8.12.29,17.52,4.51,27.98,12.56.91.7,2.22.03,2.19-1.12-1.37-40.38,6.61-24.89,6.61-24.89l9.65,16.01c.73,1.21,2.27,1.65,3.52,1.01l57.73-29.42,48.42,85.9c.73,1.29,2.38,1.73,3.65.96l10.17-6.12c1.32-.79,1.7-2.53.84-3.81l-55.11-81.22Z"/>
      <path class="cls-1" d="m196.33,513.06c-.12-.39-.4-.72-.78-.89l-4.76-2.17c-.57-.26-.91-.86-.83-1.48.2-1.61.69-4.96,1.79-9.21.27-1.06-.75-1.99-1.78-1.62-5.33,1.92-10.05,4.73-14.16,7.96-.26.21-.44.51-.48.84-.17,1.21-.32,2.34-.44,3.38-.53,4.33-.14,8.72,1.14,12.89l1.92,6.25c.23.76,1.04,1.19,1.8.95l18.53-5.69c.76-.23,1.19-1.04.95-1.8l-2.89-9.42Z"/>
      <path class="cls-1" d="m204.94,389.01c-1.24-.99-2.88.61-1.91,1.87.73.95,1.45,1.91,2.17,2.88,9.85,13.24,18.26,27.2,24.33,40.39,3.18,6.92,5.64,13.47,7.31,19.47.05.17.09.34.14.52.24.88,1.26,1.27,2.04.79,18.52-11.33-4.37-42.33-34.07-65.91Z"/>
      <path class="cls-1" d="m191.38,174.75c10.89-6.07,22.5-4.02,30.23,2.63,1.07.92,2.64-.29,2.02-1.57-.64-1.32-1.4-2.6-2.26-3.81-4.44-6.25-11.1-10.23-18.74-11.21-.4-.05-.8-.09-1.21-.13-.37-.02-.71,0-1.1.02-12.85,1.59-23.3,9.66-28.49,20.51,0,0-9.71,21.88,9.87,33.2,1.49.86,3.09-.93,2.09-2.33-2.68-3.75-5.19-9.44-4.79-17.4.42-8.29,5.12-15.89,12.37-19.93Z"/>
      <path class="cls-1" d="m210.85,142.83c-16.64-4.27-33.29.98-44.46,12.17,0,0-20.82,22.1-2.19,43.9,1.42,1.66,4.13.21,3.52-1.88-.93-3.21-1.53-7.14-1.16-11.67,1.51-18.53,18.35-32.48,36.79-30.12,19.19,2.46,31.87,20.69,27.96,39.24-1.06,5.02-3.21,9.53-6.16,13.33-1.2,1.54-2.67,2.85-4.34,3.86l-17.38,10.6c-1.36.83-2.52,1.94-3.39,3.27-11.37,17.45,6.34,47.08,11.59,52.93.03.03.06.06.09.09.24.2.59.2.83,0,41.35-35.05,35.14-59.72,28.68-70.4-.11-.19-.13-.42-.03-.61,1.8-3.83,3.11-7.97,3.83-12.38,3.83-23.48-11.14-46.4-34.18-52.32Z"/>
    </g>
  </g>
</svg>