<?xml version="1.0" encoding="UTF-8"?>
<svg id="Calque_2" data-name="Calque 2" xmlns="http://www.w3.org/2000/svg" viewBox="0 0 784.97 256.81">
  <defs>
    <style>
      .cls-1 {
        fill: #f9ef87;
      }

      .cls-2 {
        fill: none;
        stroke: #f9ef87;
        stroke-linecap: round;
        stroke-linejoin: round;
      }
    </style>
  </defs>
  <g id="Contenu">
    <g>
      <path class="cls-1" d="m770,125.3c.98,4.26,1.47,9.52,1.47,15.76,0,1.85-.23,4.91-.68,9.15-.45,4.25-.93,9.06-1.44,14.42-.51,5.35-.99,11.05-1.43,17.08-.45,6.03-.66,11.78-.66,17.28,0,5.27.21,10.61.6,16.04s.74,10.34,1.16,14.61c.46,4.79,1.08,9.58,1.72,14.26-9.54-4.48-19.15-8.79-28.83-12.92.18-9.71.39-19.41,2.21-28.97,1.57-8.22,3.31-15.84,5.27-22.79,1.97-6.95,3.74-13.77,5.33-20.44,1.59-6.66,2.38-13.86,2.35-21.5-.02-6.5-1.11-11.31-3.27-14.37-2.16-3.05-4.36-4.79-6.58-5.27-1.57-.34-2.81-.16-3.72.52-2.47,1.87-4.83,5.37-7.07,10.45s-4.18,11.02-5.81,17.82c-1.63,6.8-2.93,13.89-3.9,21.3-.97,7.41-1.41,14.46-1.35,21.21.02,1.9.14,4.15.36,6.75.22,2.6.45,5.35.75,8.17.4,3.73.65,6.84.67,9.27.02,2.44-.03,4.49-.13,6.11-.13,2.05-.29,3.68-.53,4.84-10.11-4.09-20.28-7.99-30.53-11.7-.17-2.44-.32-4.8-.49-7.03-.14-1.83-.28-3.72-.38-5.64-.09-1.92-.14-3.37-.16-4.37-.09-6.18.2-13.08.87-20.74s1.58-15.69,2.69-24.1c1.14-8.51,2.36-17.03,3.68-25.51,1.28-8.27,2.52-16.55,3.71-24.83,1.15-7.94,2.08-15.36,2.78-22.23.71-6.87,1.04-12.69.98-17.42-.09-7.19-.63-13.56-1.63-19.05-.99-5.49-2.02-10.24-3.16-14.11-1.33-4.5-5.32-11.17-7.09-14.43,10.4.38,25.62-.43,36.01,0-3.18,10.96-8.07,26.21-10.15,37.32-2.16,11.57-4.02,23.56-5.28,35.23-1.54,14.24-2.05,28.85-1.98,43.27.01,2.68.06,5.3.08,7.79.03,2.49.12,4.9.28,7.22,1.83-8.47,4.95-17.53,8.95-25.2,3.74-7.19,7.01-13.13,9.86-17.57,1.69-2.71,3.6-5.62,5.75-8.75,2.14-3.13,4.15-6.87,6.04-11.22,1.88-4.35,3.47-9.35,4.76-14.98,1.29-5.63,1.93-12.05,1.9-19.2-.02-5.8-.24-10.62-.65-14.43-.42-3.81-.92-6.96-1.44-9.41-.56-2.67-2.87-8.5-3.68-10.07,7.99.16,12.3-.18,20.28,0,.54,1.16,2.35,6.78,2.75,8.64.4,1.86.73,4.01.99,6.45.27,2.44.4,5.4.4,8.87,0,8.8-1.29,16.81-3.85,23.88-2.57,7.08-5.65,13.42-9.25,18.99-3.59,5.58-7.28,10.46-11.06,14.67-3.78,4.21-6.83,8.01-9.17,11.47-1.55,2.3-3.56,5.59-6.01,9.79-2.45,4.2-4.79,9.06-7.02,14.56-2.23,5.49-4.13,11.63-5.68,18.42-1.56,6.78-2.29,13.99-2.21,21.69.02,1.88.03,2.82.05,4.69.72,6.88,1.44,13.05,2.14,18.5.71,5.46,1.4,10.1,2.08,13.91-.14-.88-.24-1.66-.31-2.31-.07-.65-.11-1.29-.12-1.92-.29-2.82-.57-5.59-.86-8.3-.28-2.71-.44-5.21-.46-7.52-.06-5.65.26-11.74.97-18.32.71-6.57,1.72-13.04,3.02-19.43,1.31-6.38,2.91-12.36,4.82-17.97,1.91-5.6,4.02-10.32,6.34-14.14.26-.59.87-1.59,1.84-3.01.97-1.42,2.14-2.86,3.5-4.33,1.37-1.47,2.93-2.69,4.69-3.67,1.76-.98,3.62-1.29,5.59-.91,2.87.55,5.53,1.51,7.95,2.9,2.41,1.38,4.51,3.45,6.27,6.23,1.76,2.77,3.13,6.29,4.11,10.55Z"/>
      <path class="cls-1" d="m680.76,188.61c1.45,8.18,3.05,14.87,4.82,19.99-10.25-3.67-20.58-7.14-30.96-10.42-.17-2.27-.34-4.37-.51-6.26-.16-1.7-.3-3.46-.4-5.25-.1-1.78-.16-3.13-.18-4.07-.11-5.75.16-12.19.81-19.34.66-7.14,1.54-14.63,2.64-22.49,1.1-7.86,2.31-15.79,3.61-23.81,1.3-8.02,2.52-15.74,3.64-23.14,1.12-7.39,2.02-14.31,2.71-20.7.68-6.39.98-11.8.9-16.2-.12-6.68-.69-12.59-1.71-17.7-1.02-5.09-2.07-9.52-3.23-13.11-1.35-4.18-5.03-10.15-6.82-13.19,10.41.35,24.71-.4,35.12,0-2.93,10.2-7.24,23.71-9.39,34.1-2.25,10.87-3.86,21.86-5.12,32.88-1.54,13.44-1.93,26.96-1.8,40.36.14,13.54.68,27.39,2.18,40.92,1.01,9.14,2.08,18.36,3.69,27.43Z"/>
      <path class="cls-1" d="m650.95,28.08c-.74,2.67-2.41,6-5,9.91-4.14,6.24-8.46,11.13-12.98,14.76-4.51,3.64-8.91,6.76-13.18,9.4s-8.38,5.25-12.32,7.83-7.47,5.94-10.58,10.06c-3.11,4.12-5.73,9.26-7.87,15.41-2.6,7.5-3.77,16.37-4.28,24.13-.68,10.5-.43,21.76,3.1,31.85,2.93,8.35,7.77,13.33,14.33,14.81,3.35.75,6.2.21,8.55-1.68,2.35-1.88,4.28-4.7,5.79-8.48,1.52-3.76,2.58-8.32,3.2-13.64.61-5.31.86-10.9.74-16.74,4.71.74,7.07,1.12,11.78,1.9.13,8.71.73,17.56,1.73,26.18.83,7.16,2.12,14.68,3.93,22.55,1.82,7.88,4.42,14.59,7.83,20.19-29.19-9.09-58.65-16.74-88.57-23.01.04-4.36.35-9.37,1.1-14.84.64-4.68,1.8-10.45,3.26-17.21,1.47-6.76,3.63-14.38,6.56-22.79,2.6-7.48,5.78-14.48,9.38-20.96,3.6-6.47,7.41-12.5,11.43-18.1,4.01-5.59,7.97-10.73,11.87-15.39,3.9-4.66,7.4-8.96,10.52-12.85,3.11-3.89,5.61-7.4,7.47-10.48,1.87-3.07,2.78-5.7,2.73-7.83-.03-1.77-.43-3.12-1.18-4.03-.75-.91-2.9-1.2-6.32-1.01-2.24.13-5.19.62-8.77,1.53-3.58.92-7.25,2.6-11,5.01-3.75,2.41-7.28,5.77-10.59,10.05-3.31,4.28-5.83,9.85-7.55,16.7-2.48.13-3.72.19-6.21.31-.05-2.14-.02-4.45-.14-6.69-.11-1.92-.29-4.13-.34-6.45-.05-2.31-.1-4.46-.14-6.44-.08-3.63-.62-6.99-1.62-10.07s-2.17-5.81-3.38-8.11c-3.42-6.54-6.25-8.63-8.03-10.94,30.1.22,59.05-.37,89.15,0,1.08,1.13,4.94,2.73,6.28,8.91.31,1.41.07,3.59-.68,6.25Z"/>
      <path class="cls-1" d="m535.82,66.71c-.26.76-.79,1.4-1.5,1.77-3.85,2.03-8.13,1.76-11.79-.51-.1-.06-.15-.18-.12-.29,2.55-11.19-7.55-35.89-15.05-54.26-.13-.31.08-.66.42-.7,7.05-.75,14.82-.6,22.52,2.5.1.04.18.09.24.17,3.59,4.75,10.59,35.76,5.28,51.32Z"/>
      <path class="cls-1" d="m508.1,104.43c-.47,8.06-2.01,16.76-4.45,24.43-2.34,7.33-5.19,13.62-8.64,18.75-3.45,5.12-7.37,9-11.76,11.64-4.39,2.66-9.11,3.73-14.17,3.28-5.6-.5-10.92-2.87-15.95-7.08-5.03-4.21-9.39-9.75-13.14-16.47-3.96-7.08-7-15.76-8.85-23.55-2.21-9.28-3.28-19.18-3.33-28.47-.06-9.29.86-19.23,2.96-28.54,1.71-7.61,4.58-16.15,8.39-23.09,3.59-6.51,7.77-11.76,12.62-15.61,4.84-3.84,9.91-6.83,15.39-6.8,4.28.02,8.88,1.79,12.79,4.17,3.91,2.38,7.08,6.23,10.36,10.63,3.27,4.4,6.2,9.6,8.78,15.58,2.58,5.99,4.67,12.66,6.27,19.98-.53.44-1.63,1.16-3.29,2.15-1.66,1-3.39,2.06-5.19,3.2-1.79,1.14-3.49,2.2-5.09,3.19-1.6.99-2.73,1.69-3.4,2.12.33-4.86.69-9.83,1.09-14.92.39-5.08.48-9.84.28-14.27-.2-4.42-.86-8.26-1.98-11.47-1.12-3.22-2.98-5.34-5.52-6.25-3.58-1.29-7.44-.93-11.43.97-3.99,1.9-7.87,5-11.64,9.28-3.78,4.27-7.28,9.62-10.51,16.02-3.24,6.41-5.91,13.51-8,21.32-2.1,7.81-3.36,15.4-3.78,22.79-.42,7.4-.1,14.07.97,20.03,1.06,5.97,2.84,11.05,5.33,15.25,2.48,4.2,5.58,7,9.27,8.42,1.5.54,2.94.85,4.3.94,5.73.38,11.55-2.38,17.45-8.18,6.91-6.79,11.04-15.39,15.12-24.04,6.05-2.28,12.29-4.09,18.75-5.4Z"/>
      <path class="cls-1" d="m416.06,144.21c1.4,5.9,2.98,10.61,4.78,14.06-10.75-.35-21.51-.5-32.26-.45-.14-1.77-.27-3.39-.41-4.85-.13-1.32-.24-2.69-.3-4.08-.07-1.4-.11-2.46-.1-3.2,0-4.55.41-9.74,1.24-15.55.82-5.81,1.87-11.92,3.17-18.31,1.29-6.4,2.68-12.83,4.16-19.3,1.49-6.46,2.87-12.63,4.14-18.51,1.28-5.87,2.31-11.31,3.11-16.31.8-5,1.19-9.19,1.19-12.57-.01-5.15-.49-9.68-1.44-13.58-.94-3.89-1.93-7.3-3.03-10.04-1.28-3.21-2.89-6.25-4.62-8.6,10.42.15,21.19-.17,31.61,0-3.23,7.41-6.13,16.25-8.25,23.9-2.24,8.11-4.38,16.89-5.64,25.26-1.56,10.33-2.32,20.56-2.43,31.01-.11,10.2.35,20.71,1.63,30.94,1.03,8.25,2.22,15,3.45,20.18Z"/>
      <path class="cls-1" d="m394.29,12.91c-2.41,7.8-5.06,15.31-7.84,22.5-2.44,6.3-5.26,12.88-8.5,19.67-3.25,6.79-6.78,12.56-10.58,17.32-.68.75-1.29,1.12-1.83,1.13-.81.01-1.45-.35-1.91-1.08-.47-.72-.57-1.61-.29-2.65,1.91-4.74,3.82-10.29,5.73-16.65,1.91-6.34,2.87-12.61,2.89-18.8.02-5-.44-8.72-1.36-11.15-.93-2.42-2.13-4.15-3.59-5.18-.8-.59-1.64-.7-2.51-.33-.87.37-1.45,1-1.72,1.89-1.22,3.1-2.61,7.13-4.18,12.09-1.57,4.96-3.12,10.62-4.64,17-1.52,6.38-2.81,13.32-3.88,20.81-1.06,7.5-1.62,15.42-1.69,23.7-.09,10.38.11,20.85,1.3,31.16.94,8.16,2.01,14.88,3.24,19.95,1.4,5.82,3.07,10.44,4.83,13.77-10.82.5-21.63,1.21-32.43,2.11-.11-1.78-.09-3.5-.15-4.91-.05-1.28-.21-2.72-.26-4.13-.05-1.41-.07-2.5-.07-3.25.06-4.78.53-10.16,1.41-16.12.88-5.95,2-12.18,3.35-18.66,1.36-6.48,2.78-13.07,4.26-19.76,1.49-6.68,2.9-13.01,4.24-19,1.33-5.98,2.43-11.5,3.28-16.57.85-5.07,1.29-9.3,1.32-12.72.01-2.08-.1-4.75-.34-8.01s-.78-6.42-1.63-9.45c-.84-3.04-2.06-5.67-3.64-7.89-1.58-2.22-3.71-3.33-6.39-3.32-1.6.01-3.34.43-5.22,1.26-1.89.84-3.67,2.16-5.36,3.98-1.7,1.81-3.13,4.08-4.3,6.81-1.18,2.72-1.79,5.89-1.83,9.51-.05,3.76.83,8.56,2.63,14.38,1.81,5.81,3.83,11.37,6.06,16.69.39,1.03.31,1.97-.23,2.81-.55.85-1.23,1.28-2.04,1.31-.54.02-1.14-.33-1.81-1.05-2.78-3.8-5.73-7.76-8.83-11.88-3.1-4.11-5.93-8.52-8.48-13.23s-4.65-9.87-6.3-15.48c-1.66-5.61-2.43-11.72-2.33-18.29,33.87-.18,67.74-.28,101.62-.29Z"/>
      <path class="cls-1" d="m289.4,12.92c-.02,1.07-.49,2.62-.59,3.75-.08.86-.26,1.88-.35,2.88-.08,1-.26,1.88-.54,2.65-2.17,7.85-4,15.88-5.52,23.86-1.52,8.05-2.81,15.87-3.81,23.41-1.01,7.54-1.77,14.69-2.29,21.45s-.83,12.78-.92,18.04c-.01.46-.01.7-.02,1.16-.68,7.94-2.13,15.43-4.35,22.49-2.22,7.08-5.31,13.36-9.26,18.9-3.96,5.54-8.82,10.19-14.56,13.98-5.75,3.8-12.48,6.44-20.18,7.93-.49.09-.73.14-1.22.23-3.1.61-5.99.46-8.65-.47-2.67-.94-4.95-2.48-6.84-4.65-1.9-2.17-3.38-4.81-4.45-7.92-1.07-3.1-1.57-6.5-1.49-10.18.06-2.84.39-5.39.97-7.66,1.91-8.27,3.08-17.05,3.67-25.47.67-9.6,1.11-19.38,1.33-28.98.25-11.65.3-23.47-.34-35.18-.52-9.33-1.22-16.93-2.01-22.74-.94-6.79-2.01-13.48-3.26-17.48,10.49-.2,20.97.17,31.45,0,.11,1.29.35,3.41.52,4.8.15,1.23.18,2.82.21,4.59.03,1.77.01,3.79-.03,6.04-.15,9.26-1.37,19.15-3.29,28.18-1.97,9.28-4.14,18.72-6.61,27.94-2.21,8.25-4.42,16.53-6.66,24.79-2.03,7.53-3.1,13.72-3.2,18.49-.14,6.41,1.5,11.24,4.92,14.43,3.42,3.19,8.43,4.21,15.05,3.19,4.72-.72,9.1-2.44,13.13-5.12,4.03-2.69,7.57-5.96,10.61-9.85,3.04-3.87,5.49-8.27,7.33-13.2,1.84-4.92,3.01-10.09,3.31-15.33.74-13.06,1.08-26.53-.6-39.55-1.18-9.1-2.53-18.45-5.03-27.37-2.35-8.35-5.48-16.23-8.7-22.03,10.48-.17,21.78.14,32.27,0Z"/>
      <path class="cls-1" d="m192.4,60.37c-1.83-9.14-4.64-18.76-9-27.45-3.92-7.81-9.25-12.39-11.78-13.95-6.02-3.72-13.05-6.07-19.19-6.05-6.14.01-13.21.58-18.99,5.36-6.45,5.34-9.94,10.12-13.15,17.44-4.45,10.15-7.8,21.1-10.02,32.08-2.64,12.99-3.92,26.32-4.13,39.29-.21,12.53.35,25.72,2.81,38.08,1.94,9.73,4.34,19.76,8.85,28.87,3.81,7.68,8.35,13.21,13.67,16.59,5.32,3.37,11.03,4.06,17.14,2.27,6.1-1.78,11.91-5.88,17.42-11.97,5.8-6.42,11.17-14.73,14.64-22.58,4.33-9.8,7.65-19.5,10.24-29.84,2.78-11.07,4.2-23.07,4.26-34.49.05-11.42-.58-22.71-2.77-33.65Zm-8.4,13.78c-.74,9.52-2.75,18.9-5.01,28.09-2.07,8.4-5.1,17.04-8.53,25.03-3.37,7.88-6.96,14.97-10.8,21.11-3.84,6.14-7.79,11.26-11.84,15.33-4.05,4.06-7.99,6.65-11.83,7.68-1.59.43-3.17.58-4.75.45-4.07-.56-7.37-3.09-9.91-7.68-2.55-4.59-4.26-10.76-5.19-18.41-1.05-8.59-1.11-17.91-.32-26.47.97-10.56,2.51-20.95,4.91-31.13,2.12-8.98,4.85-18.21,8.46-26.92,3.36-8.11,6.93-15.08,10.77-20.81,3.84-5.72,7.8-10.16,11.86-13.37,4.06-3.2,8.03-4.81,11.9-4.91,1.6-.04,3.2.19,4.79.68,3.97,1.48,7.27,4.63,9.9,9.38,2.63,4.76,4.4,10.71,5.31,17.87.91,7.17.97,15.2.28,24.08Z"/>
      <path class="cls-1" d="m89.1,124.24c-.26,13.78-.26,27.94.87,41.77.7,8.66,1.39,17.47,2.84,26.02,1.26,7.42,2.79,13.13,4.42,17.05-10.09,3.73-20.11,7.65-30.04,11.75-.24.1-.35.14-.59.24-.62-1.82-1.14-4.35-1.65-7.44-.45-2.69-.91-6.1-1.25-10.15-.34-4.04-.48-9.1-.42-15.18.04-3.98.23-10.37.59-19.14.39-9.86.77-19.75,1.09-29.57.36-11.23.61-22.59.65-33.78.04-10.53-.17-21.18-.65-31.7-.44-9.5-1.44-17.37-2.83-23.46-1.4-6.09-3.36-9.09-5.88-8.92-.93.06-1.8.87-2.61,2.42s-1.52,3.43-2.13,5.62c-.62,2.2-1.1,4.56-1.45,7.06-.34,2.51-.66,4.75-.94,6.72-.25,1.97-.38,2.95-.63,4.93v.64c-1.39,10.86-2.88,21.7-4.48,32.51-1.62,11.03-3.27,22.11-4.8,33.13-1.38,9.9-2.69,19.85-3.86,29.79-1.08,9.17-1.63,16.68-1.66,22.45-.03,7.54.39,14.15,1.26,19.77.86,5.61,1.97,10.33,2.99,13.96,1.2,4.24,2.51,7.92,4.15,10.67-10,4.18-19.92,8.54-29.76,13.07,3.04-13.12,5.65-26.42,7.85-39.6,2.25-13.49,3.88-27.33,5.39-40.97,1.75-15.86,2.5-31.98,2.59-47.87.09-15.6-.16-31.45-1.32-47.11-.75-10.12-1.55-20.44-2.98-30.35-1.29-8.85-6.25-20.44-7.97-25.65,10.45-.24,20.98.21,31.43,0,.28,0,2.98,1.94,5.04,3.46,1.1.8,3.19,2.7,4.97,4.56,1.78,1.86,3.65,4.61,5.61,8.2,1.96,3.6,3.73,8.58,5.32,14.92,1.59,6.34,2.81,14.27,3.6,23.77.97,11.54.94,23.25.58,34.72-.27,8.83-.56,16.9-.57,23.91-.02,7,.07,13.37.26,19.08,1.27-8.52,2.58-17.03,3.94-25.53,1.35-8.45,2.64-16.44,3.85-23.95,1.22-7.51,2.2-14.39,2.94-20.65.75-6.26,1.15-11.51,1.21-15.76.09-7.08-.29-13.26-1.15-18.57-.85-5.31-1.79-9.81-2.81-13.42-1.26-4.42-4.67-11.49-6.36-14.74,10.47-.1,23.63.08,34.09,0-3.33,10.47-7.07,23.84-9.48,34.45-2.56,11.27-4.53,23.02-6.08,34.48-1.89,14-2.92,28.29-3.18,42.39Z"/>
      <path class="cls-1" d="m726.27,1.95c2.98,0,5.58.05,7.95.14,2.22.09,4.4.88,6.15,2.23.18.14.4.21.61.21s.43-.07.61-.21c1.89-1.45,4.24-2.24,6.62-2.24h.22c1.46.03,2.88.05,4.36.05,1.84,0,3.53-.02,5.17-.05,2-.03,3.82-.05,5.8-.05,1.66,0,3.29.02,4.97.05,4.16.1,7.83,2.5,9.58,6.26.98,2.1,3,8.5,3.52,10.94.48,2.22.88,4.77,1.17,7.59.31,2.76.46,6.03.46,10.01,0,10.06-1.51,19.34-4.5,27.57-2.85,7.85-6.33,14.98-10.34,21.19-2.36,3.66-4.81,7.12-7.29,10.29-.19.24-.26.56-.18.86s.28.55.57.67c1.09.48,2.2,1.04,3.3,1.66,3.96,2.27,7.33,5.58,10.02,9.84,2.41,3.78,4.26,8.46,5.52,13.91,1.17,5.12,1.74,11.07,1.74,18.2,0,2.25-.24,5.52-.74,10.3-.46,4.38-.94,9.19-1.42,14.3-.5,5.2-.98,10.86-1.41,16.84-.42,5.58-.63,11.13-.63,16.5.01,4.99.2,10.12.57,15.25l.03.49c.36,5.01.7,9.75,1.1,13.84.47,4.94,1.14,10,1.67,13.85.54,3.94-1.12,7.85-4.32,10.21-1.87,1.38-4.09,2.11-6.42,2.11-1.6,0-3.15-.35-4.6-1.02-9.25-4.35-18.83-8.64-28.48-12.76-2.72-1.17-4.88-3.42-5.91-6.2-.09-.25-.28-.46-.53-.56-.13-.06-.27-.09-.41-.09-.12,0-.25.02-.37.07-1.25.49-2.58.75-3.95.75s-2.78-.27-4.07-.79c-9.88-4-20.03-7.88-30.16-11.55-1.65-.6-3.15-1.6-4.34-2.92-.19-.21-.46-.33-.74-.33-.04,0-.09,0-.13,0-.58.08-1.05.11-1.48.11-1.26,0-2.49-.21-3.65-.63-9.99-3.58-20.28-7.04-30.57-10.29-.92-.29-1.81-.72-2.65-1.26-.16-.11-.35-.16-.54-.16-.07,0-.13,0-.2.02-.81.16-1.54.24-2.24.24-1.1,0-2.18-.17-3.22-.49-28.72-8.94-58.19-16.59-87.57-22.74-5.04-1.06-8.66-5.57-8.62-10.71.05-5.28.45-10.73,1.2-16.21.77-5.58,2.15-12.24,3.41-18.02,1.61-7.43,3.94-15.53,6.92-24.06,2.73-7.85,6.14-15.47,10.14-22.66,3.79-6.81,7.86-13.25,12.1-19.15.25-.34.25-.81,0-1.15-.19-.27-.5-.43-.82-.43-.09,0-.18.01-.26.04-.82.22-1.59.35-2.37.39-1.89.1-3.07.16-4.63.24l-1.42.07h-.17c-.18.01-.37.01-.55.01-2.75,0-5.37-1.03-7.38-2.91-2.13-1.99-3.4-4.79-3.47-7.67l-.03-2.26v-.2c0-1.22-.03-2.63-.09-3.93-.03-.44-.06-.94-.09-1.48-.1-1.56-.22-3.39-.27-5.31l-.14-6.45c-.05-2.54-.42-4.87-1.09-6.94-.74-2.29-1.66-4.5-2.66-6.41-1.84-3.53-3.32-5.16-4.74-6.73l-.07-.07-.04-.04c-.71-.77-1.44-1.57-2.18-2.53-2.51-3.26-2.95-7.75-1.12-11.44,1.84-3.71,5.56-6.01,9.7-6.01,4.37.03,8.97.05,14.92.05,8.6,0,17.27-.04,25.68-.08h.21c8.32-.05,17.21-.09,25.9-.09,8.23,0,15.61.04,22.58.12,1.64.02,3.3.43,4.8,1.19.14.07.3.11.45.11s.31-.04.45-.11c1.56-.79,3.21-1.19,4.89-1.19.12,0,.24,0,.36,0,1.83.06,3.88.09,6.28.09,2.82,0,5.88-.05,8.84-.09l1.32-.02h.15s1.38-.02,1.38-.02c3.1-.04,6.31-.09,9.34-.09s5.65.04,7.85.13c.86.04,1.74.18,2.61.42.09.03.18.04.27.04s.18-.01.27-.04c1.02-.29,2.03-.43,3-.43.13,0,.25,0,.39,0,2.01.07,4.1.1,6.38.1,3.46,0,7.44-.07,10.62-.12h.21c3.23-.05,7.25-.12,10.9-.12m3.45,89.04c.33,0,.65-.16.83-.45.76-1.15,1.59-2.38,2.62-3.89,1.75-2.57,3.47-5.78,5.12-9.57,1.63-3.76,3.04-8.22,4.2-13.26,1.12-4.93,1.68-10.63,1.65-16.96-.02-5.5-.22-10.02-.6-13.42-.24-2.17-.52-4.21-.83-6.07-.08-.46-.46-.8-.92-.83l-.98-.06s-.04,0-.06,0c-.44,0-.83.29-.96.72-2.42,8.14-5.11,17.45-6.5,24.85-2.29,12.27-4.03,23.87-5.16,34.47l-.03.25c-.1.93-.2,1.85-.29,2.79-.04.46.23.88.66,1.04l.92.33c.11.04.22.06.34.06m-42.24,53.63c.5,0,.92-.37.99-.86,1.01-7.33,2.02-14.21,2.99-20.43,1.27-8.2,2.51-16.51,3.69-24.71,1.15-7.91,2.06-15.24,2.72-21.78.67-6.47.99-11.92.93-16.19-.08-6.62-.57-12.42-1.46-17.25-.23-1.26-.45-2.46-.67-3.59-.09-.46-.48-.79-.95-.81-.01,0-.02,0-.04,0-.45,0-.85.3-.97.74-.95,3.53-1.73,6.72-2.3,9.48-1.98,9.56-3.6,20-4.96,31.92-1.33,11.6-1.88,24-1.73,39.02.09,8.8.34,16.49.75,23.52.03.51.45.92.96.94.01,0,.03,0,.04,0m-99.65-80.67c.3,0,.59-.13.79-.38,1.54-1.96,3.09-3.87,4.59-5.66,3.43-4.1,6.82-8.25,10.39-12.69.66-.82,1.29-1.63,1.88-2.4.28-.37.27-.87-.02-1.23l-.61-.76c-.19-.24-.48-.37-.78-.37-.14,0-.29.03-.42.09-1.33.62-2.72,1.39-4.13,2.3-2.77,1.78-5.51,4.4-8.13,7.79-2.24,2.89-4.05,6.8-5.4,11.61-.13.46.09.95.51,1.16l.88.44c.14.07.3.11.45.11m16.23,91.53c.31,0,.61-.15.81-.41.55-.74,1.09-1.78,1.58-3.01,1.15-2.85,1.99-6.51,2.5-10.88.55-4.8.78-9.94.67-15.26-.06-3.21,1.29-6.27,3.72-8.39,1.97-1.72,4.52-2.67,7.17-2.67.55,0,1.1.04,1.63.13,4.73.75,7.12,1.13,11.86,1.92,5.18.86,8.99,5.29,9.07,10.53.07,4.76.3,9.75.72,15.23.04.51.46.9.97.92,0,0,.02,0,.03,0,.5,0,.93-.38.99-.88.15-1.14.3-2.28.47-3.44,1.01-7.26,2.2-15.12,3.64-24.04,1.35-8.26,2.53-15.79,3.62-23.03,1.08-7.04,1.97-13.85,2.66-20.25.62-5.91.91-10.9.84-14.83-.07-4.28-.35-8.25-.84-11.79-.06-.41-.36-.74-.76-.84-.08-.02-.15-.03-.23-.03-.33,0-.64.16-.83.44-4.56,6.71-9.47,12.19-14.59,16.29-4.67,3.78-9.47,7.2-14.26,10.17-4.21,2.6-8.28,5.18-12.09,7.68-2.87,1.87-5.51,4.4-7.86,7.52-2.41,3.21-4.53,7.39-6.29,12.44-1.88,5.42-3.13,12.58-3.7,21.28-.76,11.73.04,20.49,2.51,27.56,1.46,4.15,3.36,6.69,5.64,7.56.12.04.24.07.36.07m133.24,28.01c.45,0,.86-.31.97-.76.54-2.13,1.09-4.21,1.65-6.19,1.88-6.63,3.64-13.37,5.23-20.05,1.41-5.9,2.11-12.35,2.08-19.18,0-.55-.01-1.06-.03-1.54-.02-.47-.37-.87-.83-.95l-.97-.16c-.06,0-.11-.01-.17-.01-.41,0-.78.25-.93.64-1.54,3.93-2.92,8.45-4.12,13.43-1.55,6.46-2.8,13.28-3.71,20.28-.59,4.51-.98,8.99-1.16,13.3-.02.51.35.96.86,1.03l.98.14s.1.01.14.01M726.27.95c-3.53,0-7.29.06-10.92.12h-.19c-3.58.06-7.28.12-10.62.12-2.49,0-4.57-.04-6.35-.1-.14,0-.28,0-.42,0-1.12,0-2.22.17-3.27.47-.92-.26-1.87-.42-2.84-.46-2.28-.09-4.86-.13-7.89-.13-3.49,0-7.17.06-10.74.11h-.14c-3.41.05-6.93.11-10.16.11-2.41,0-4.45-.03-6.25-.09-.13,0-.26,0-.39,0-1.88,0-3.7.46-5.35,1.3-1.61-.82-3.4-1.28-5.24-1.3-6.9-.08-14.28-.12-22.59-.12-8.84,0-17.91.04-25.91.08h-.25c-8.52.05-17.05.09-25.64.09-4.91,0-9.85,0-14.91-.05-4.53,0-8.59,2.52-10.6,6.57-2,4.03-1.52,8.93,1.22,12.49.78,1.01,1.54,1.84,2.27,2.64,1.46,1.61,2.85,3.12,4.66,6.59.97,1.85,1.87,4.01,2.6,6.26.64,1.97.99,4.2,1.04,6.65l.14,6.45c.05,1.97.17,3.85.27,5.35.03.53.06,1.04.09,1.48.06,1.19.08,2.49.09,3.87v.19c.01.77.02,1.53.03,2.27.08,3.16,1.46,6.22,3.79,8.39,2.2,2.04,5.04,3.17,8.06,3.17.2,0,.4,0,.6-.01h.15c2.39-.12,3.64-.18,6.07-.31.88-.04,1.74-.19,2.58-.42-4.27,5.95-8.36,12.43-12.16,19.25-4.04,7.27-7.47,14.95-10.21,22.82-2.99,8.57-5.33,16.71-6.95,24.18-1.34,6.18-2.67,12.65-3.42,18.1-.75,5.5-1.16,11-1.21,16.34-.05,5.62,3.91,10.54,9.41,11.7,29.42,6.16,58.85,13.81,87.48,22.72,1.14.36,2.33.54,3.52.54.83,0,1.64-.1,2.44-.26.88.57,1.85,1.04,2.89,1.37,10.36,3.27,20.63,6.73,30.54,10.28,1.28.46,2.63.69,3.99.69.54,0,1.08-.05,1.61-.12,1.27,1.41,2.88,2.52,4.74,3.19,9.99,3.62,20.13,7.5,30.12,11.54,1.42.58,2.93.87,4.44.87s2.94-.27,4.32-.82c1.13,3.04,3.46,5.49,6.45,6.77,9.44,4.03,19.01,8.31,28.45,12.75,1.58.74,3.28,1.12,5.03,1.12,2.54,0,4.97-.8,7.01-2.3,3.5-2.57,5.31-6.84,4.72-11.15-.57-4.14-1.21-9.02-1.67-13.81-.39-3.99-.72-8.54-1.1-13.82l-.03-.48c-.37-5.14-.56-10.25-.57-15.19,0-5.31.21-10.84.63-16.42.42-5.79.89-11.45,1.41-16.82.51-5.4.99-10.2,1.42-14.29.51-4.79.75-8.1.75-10.4,0-7.21-.58-13.23-1.77-18.42-1.28-5.55-3.18-10.34-5.65-14.22-2.78-4.4-6.27-7.82-10.37-10.17-1.09-.62-2.23-1.2-3.39-1.71,2.51-3.21,4.98-6.7,7.34-10.36,4.05-6.27,7.56-13.46,10.44-21.39,3.03-8.35,4.56-17.74,4.56-27.91,0-3.98-.15-7.29-.47-10.12-.3-2.84-.7-5.43-1.19-7.69-.53-2.47-2.58-8.99-3.59-11.15-1.91-4.11-5.92-6.73-10.46-6.84-1.83-.04-3.46-.05-5-.05-2.02,0-3.87.03-5.81.05-1.66.02-3.33.05-5.16.05-1.34,0-2.77-.01-4.34-.05h-.24c-2.62,0-5.17.87-7.23,2.45-1.92-1.48-4.3-2.34-6.72-2.44-2.28-.09-4.89-.14-7.99-.14h0Zm3.45,89.04l-.92-.33c.1-1.02.21-2.02.32-3.03,1.14-10.64,2.88-22.22,5.15-34.39,1.37-7.29,4.06-16.6,6.48-24.75l.98.06c.3,1.78.58,3.81.82,6.01.38,3.45.57,7.93.59,13.32.03,6.27-.52,11.9-1.62,16.73-1.14,4.96-2.53,9.36-4.14,13.08-1.62,3.72-3.31,6.88-5.03,9.4-.91,1.33-1.79,2.63-2.63,3.9h0Zm-42.24,53.63c-.42-7.13-.66-14.84-.75-23.47-.15-15.01.4-27.37,1.72-38.9,1.36-11.9,2.98-22.31,4.95-31.83.6-2.88,1.39-6.09,2.29-9.42.22,1.13.44,2.32.67,3.58.88,4.8,1.36,10.54,1.44,17.08.06,4.23-.25,9.64-.92,16.07-.67,6.62-1.59,13.94-2.72,21.74-1.16,8.06-2.4,16.37-3.69,24.7-1.01,6.5-2.01,13.37-2.99,20.45h0Zm-99.65-80.67l-.88-.44c1.31-4.69,3.07-8.48,5.23-11.26,2.55-3.3,5.2-5.84,7.88-7.56,1.37-.88,2.72-1.63,4.01-2.23l.61.76c-.59.77-1.21,1.57-1.86,2.39-3.58,4.46-6.97,8.6-10.38,12.68h0c-1.51,1.8-3.06,3.71-4.61,5.69h0Zm16.23,91.53c-1.97-.75-3.71-3.15-5.05-6.96-2.43-6.94-3.21-15.58-2.46-27.16.57-8.59,1.79-15.66,3.65-21.02,1.73-4.97,3.8-9.06,6.14-12.17,2.28-3.02,4.84-5.47,7.61-7.28,3.81-2.5,7.87-5.08,12.07-7.67,4.76-2.95,9.6-6.39,14.36-10.24,5.24-4.2,10.2-9.76,14.79-16.51.48,3.49.76,7.39.83,11.67.07,3.9-.21,8.85-.83,14.71-.68,6.33-1.57,13.13-2.65,20.2-1.04,6.91-2.22,14.44-3.62,23.02-1.37,8.5-2.57,16.37-3.64,24.06-.17,1.16-.32,2.31-.47,3.46-.39-5.1-.65-10.18-.72-15.17-.09-5.73-4.25-10.56-9.91-11.5-4.74-.79-7.12-1.17-11.87-1.92-.59-.09-1.19-.14-1.79-.14-2.84,0-5.66,1.03-7.83,2.92-2.65,2.31-4.13,5.65-4.06,9.16.11,5.27-.11,10.36-.66,15.13-.5,4.28-1.32,7.86-2.43,10.62-.55,1.38-1.07,2.26-1.46,2.79h0Zm133.24,28.01l-.98-.14c.18-4.29.57-8.74,1.15-13.22.91-6.96,2.15-13.75,3.69-20.18,1.18-4.94,2.55-9.41,4.08-13.3l.97.16c.02.47.03.97.03,1.5.03,6.75-.67,13.12-2.05,18.94-1.59,6.66-3.34,13.4-5.22,20.01-.56,2-1.12,4.09-1.66,6.22h0Z"/>
      <g>
        <path class="cls-1" d="m164.09,34.97c.08,0,.16,0,.25.02.89.5,1.89,1.7,2.84,3.41,1.83,3.31,3.11,7.78,3.81,13.28.78,6.11.85,13.33.22,21.47-.7,9.02-2.76,18.21-4.68,26.01-1.79,7.25-4.51,15.22-7.87,23.05-3.19,7.46-6.51,13.97-9.88,19.35-3.33,5.32-6.7,9.71-10.04,13.07-2.77,2.78-4.64,3.81-5.61,4.19-.16-.22-.35-.51-.57-.91-1.17-2.1-2.75-6.19-3.67-13.73-.91-7.43-1.01-15.86-.28-23.74.99-10.76,2.5-20.36,4.62-29.36,2.21-9.36,4.84-17.76,7.83-24.96,3.09-7.46,6.31-13.7,9.57-18.57,3.05-4.54,6.13-8.05,9.15-10.44,1.7-1.34,3.27-2.13,4.32-2.16m-.01-1c-1.3.03-3.03.88-4.93,2.37-3.1,2.46-6.25,6.04-9.36,10.67-3.3,4.92-6.55,11.23-9.66,18.74-3,7.24-5.65,15.69-7.88,25.11-2.13,9.04-3.65,18.69-4.64,29.49-.73,7.95-.63,16.46.28,23.95.94,7.7,2.58,11.92,3.79,14.1.5.9.89,1.37,1.1,1.58.04,0,.08-.02.12-.03.99-.27,3.15-1.22,6.54-4.61,3.39-3.41,6.82-7.87,10.18-13.25,3.39-5.43,6.74-11.98,9.95-19.49,3.38-7.88,6.12-15.91,7.92-23.21,1.93-7.84,3.99-17.08,4.7-26.18.64-8.2.56-15.49-.22-21.67-.72-5.63-2.04-10.21-3.93-13.64-.77-1.39-1.98-3.19-3.38-3.89-.21-.04-.4-.07-.59-.07h0Z"/>
        <path class="cls-2" d="m539.99,8.26c-1.35-1.79-3.17-3.18-5.27-4.02-6.24-2.51-12.86-3.74-20.24-3.74-2.55,0-5.15.15-7.95.45h-.13c-3.84.46-7.29,2.72-9.23,6.06-1.49,2.54-1.99,5.55-1.46,8.45-2.68-3.13-5.79-6.17-9.59-8.48-4.39-2.67-11.23-5.86-18.89-5.9h-.14c-9.74,0-17.6,5.35-22.67,9.37-1.96,1.55-3.83,3.31-5.63,5.22.75-3.11.23-6.41-1.53-9.16-2.15-3.33-5.8-5.36-9.77-5.43-5.34-.08-10.78-.05-16.22,0h-.38c-5.04.04-10.07.08-15.03,0h-.17c-.26,0-.52.01-.78.03-.21-.01-.41-.04-.62-.04-16.56.01-33.39.03-50.38.08-16.98.05-34.12.12-51.3.21-.2,0-.38.02-.58.03-.86-.19-1.74-.31-2.63-.31h-.16c-4.93.07-10.04.03-15.15,0h-.21c-5.72-.05-11.44-.09-16.94,0-4.14.07-7.99,2.34-10.06,5.92-.08.13-.16.27-.23.41-2.03-3.88-6.03-6.33-10.48-6.33h-.19c-4.95.08-9.9.04-14.85,0h-.16c-3.06-.03-6.13-.06-9.19-.06-2.68,0-5.06.02-7.29.06-3.7.07-7.21,1.91-9.37,4.92-2.17,3.01-2.81,6.91-1.7,10.45,1.22,3.89,2.43,12.66,2.83,15.54.03.25.06.51.1.76-.76-1.77-1.54-3.49-2.37-5.14-4.69-9.35-11.41-15.8-16.14-18.71-8.16-5.04-17.19-7.82-25.43-7.82-7.81.01-17.89.94-26.52,8.08-2.43,2.01-4.55,3.99-6.44,6.04.64-3.23-.11-6.63-2.08-9.31-2.22-3.01-5.78-4.81-9.62-4.81-4.87.04-10.33.02-15.83,0h-.4c-6.19-.03-12.4-.05-17.88,0-4.09.04-7.93,2.24-10.04,5.74-.49.82-.87,1.68-1.15,2.58-.92-.83-2.05-1.81-3.06-2.55-5.54-4.08-7.83-5.77-12.07-5.77h-.24c-4.99.1-9.99.05-15-.01-3.07-.03-6.15-.06-9.22-.06-2.65,0-5.02.02-7.24.07-3.74.09-7.25,1.96-9.4,5.01-2.16,3.06-2.74,6.99-1.57,10.54.5,1.51,1.18,3.35,1.91,5.3,1.91,5.15,4.79,12.92,5.58,18.33,1.34,9.25,2.1,18.85,2.89,29.53.99,13.29,1.4,27.96,1.29,46.17-.09,16.66-.94,32.35-2.52,46.64-1.36,12.29-3,26.56-5.3,40.32-2.22,13.33-4.81,26.41-7.7,38.88-1.01,4.37.58,9.02,4.05,11.85,2.11,1.71,4.76,2.66,7.48,2.66,1.72,0,3.39-.37,4.95-1.09,9.75-4.49,19.64-8.83,29.38-12.9,3.16-1.32,5.6-3.95,6.67-7.21,1.08-3.26.69-6.83-1.07-9.77-.9-1.51-1.88-4.14-2.92-7.81-1.11-3.96-2.02-8.19-2.69-12.57-.77-4.99-1.15-11.01-1.12-17.9.03-5.36.56-12.47,1.58-21.13,1.05-8.97,2.31-18.63,3.83-29.54.86-6.19,1.75-12.41,2.72-19-.11,6.8-.28,14-.53,21.81-.33,10-.72,20.08-1.09,29.47-.35,8.5-.55,15.25-.6,19.51-.06,6.42.09,11.9.46,16.29.33,3.88.79,7.61,1.37,11.09.68,4.15,1.34,7.02,2.12,9.33,1.05,3.08,3.36,5.63,6.34,6.97,2.97,1.34,6.41,1.39,9.41.14l.57-.23c9.75-4.03,19.72-7.92,29.63-11.59,3-1.11,5.46-3.43,6.74-6.37,1.28-2.93,1.31-6.32.08-9.28-.77-1.85-2.27-6.19-3.68-14.48-1.32-7.81-2-16.17-2.65-24.27v-.04c1.43,4.56,3.16,9.11,5.37,13.56,4.77,9.63,10.81,16.8,17.93,21.33,5.31,3.36,11.07,5.07,17.11,5.07,3.18,0,6.44-.48,9.69-1.44,8.07-2.35,15.77-7.53,22.88-15.39,6.61-7.32,12.69-16.69,16.69-25.74.6-1.35,1.17-2.7,1.74-4.05.35,1.85.82,3.65,1.42,5.38,1.56,4.56,3.83,8.55,6.71,11.85,3.23,3.7,7.22,6.41,11.86,8.05,2.85.99,5.86,1.49,8.95,1.49,1.92,0,3.9-.19,5.88-.58,0,0,1.17-.22,1.2-.23,9.21-1.78,17.44-5.03,24.45-9.67,6.96-4.59,12.91-10.31,17.68-16.99,4.67-6.55,8.35-14.03,10.91-22.22,2.47-7.85,4.1-16.27,4.85-25.03.03-.25.04-.51.05-.76l.02-1.21c.08-4.95.38-10.78.88-17.33.51-6.56,1.26-13.56,2.23-20.8.63-4.8,1.42-9.91,2.35-15.26,2.35,4.04,4.9,7.92,7.64,11.55,3.33,4.42,6.18,8.26,8.74,11.75.27.37.57.73.88,1.07,3.71,3.99,7.72,4.83,10.44,4.83.14,0,.33,0,.47-.01.97-.04,1.92-.17,2.85-.39l-1.39,6.21c-1.47,6.65-2.91,13.34-4.29,19.9-1.4,6.7-2.56,13.21-3.47,19.35-.95,6.46-1.47,12.41-1.54,17.7v.15c0,.85.02,2.08.08,3.67.03.89.1,1.8.16,2.68l.02.19c.03.45.06.89.08,1.34.02.43.03.89.04,1.37v.17c.02,1,.04,2.25.12,3.6.2,3.16,1.68,6.16,4.08,8.23,2.15,1.85,4.9,2.88,7.74,2.88.33,0,.66-.02.98-.04,10.79-.9,21.55-1.6,32-2.08,4.07-.19,7.71-2.42,9.73-5.96,2.02-3.53,2.09-7.8.19-11.4-.96-1.81-2.39-5.18-3.8-11.03-1.07-4.43-2.07-10.66-2.98-18.52-1.22-10.58-1.29-21.43-1.22-29.7.02-2.98.12-5.94.28-8.83,1.59.61,3.27.92,5,.92h.26c2.7-.06,6.7-.97,10.37-5.02.17-.18.33-.37.48-.56,4.36-5.46,8.4-12.05,12.01-19.61,1.33-2.78,2.6-5.59,3.84-8.4-.15,1.27-.34,2.62-.57,4.06-.78,4.86-1.78,10.14-2.99,15.68-1.24,5.74-2.62,11.92-4.11,18.37-1.52,6.66-2.94,13.24-4.22,19.58-1.32,6.47-2.42,12.86-3.29,19-.9,6.28-1.35,12.05-1.36,17.14-.01.91.02,2.04.11,3.79.07,1.46.18,2.99.35,4.7.13,1.4.25,2.96.39,4.66.48,6.11,5.67,10.9,11.89,10.9.47,0,2.76-.01,3.96-.01,9.24,0,18.6.15,27.82.45.13.01.26.01.39.01,4.1,0,7.84-2.07,10.02-5.54,2.23-3.55,2.41-8.06.48-11.78-.9-1.71-2.28-5.07-3.76-11.32-.11-.44-.21-.91-.32-1.38.78,1.61,1.57,3.18,2.39,4.66,4.51,8.08,9.85,14.73,15.88,19.78,6.91,5.78,14.48,9.08,22.5,9.79,1.1.1,2.19.15,3.27.15,6.42,0,12.5-1.71,18.05-5.07,5.86-3.53,11.07-8.64,15.48-15.18,4.04-6,7.34-13.12,10.1-21.77,2.68-8.42,4.45-18.13,4.99-27.33.21-3.64-1.31-7.24-4.06-9.63-2.75-2.39-6.54-3.39-10.11-2.66-6.97,1.41-13.89,3.4-20.57,5.92-2.9,1.09-5.22,3.23-6.54,6.03-3.52,7.47-7.17,15.2-12.71,20.65-3.16,3.11-6.04,4.82-8.11,4.82-.08,0-.17-.01-.26-.01-.11-.01-.42-.05-.92-.21-1.1-.47-2.2-1.6-3.25-3.38-1.75-2.96-3.05-6.76-3.86-11.3-.9-5-1.17-10.81-.8-17.27.37-6.53,1.51-13.4,3.4-20.4,1.86-6.96,4.26-13.37,7.13-19.05,2.77-5.49,5.74-10.04,8.82-13.53,2.7-3.06,5.34-5.22,7.85-6.41.36-.17.71-.31,1.02-.41.54,1.92.87,4.28.99,7,.18,3.97.1,8.28-.25,12.81-.39,4.96-.75,9.88-1.1,15.05-.31,4.49,1.91,8.7,5.79,10.99,3.77,2.23,8.72,2.14,12.42-.23.62-.4,1.65-1.04,3.11-1.94l.12-.07c1.64-1.02,3.39-2.11,5.19-3.26,1.54-.97,3.16-1.97,4.92-3.03,1.61-.96,2.79-1.72,3.73-2.39.99,1.96,2.52,3.67,4.5,4.87,3.84,2.36,8.17,3.61,12.53,3.61,3.82,0,7.48-.91,10.88-2.71,3.42-1.77,5.99-4.77,7.24-8.45,6.44-18.84-.94-54.22-7.03-62.27Zm-280.35,92.93c-.22,3.89-1.09,7.88-2.58,11.87-1.4,3.75-3.27,7.13-5.57,10.05-2.25,2.88-4.82,5.27-7.84,7.28-2.63,1.75-5.37,2.82-8.38,3.28-1.04.16-1.99.24-2.83.24-1.46,0-2.21-.26-2.35-.39-.79-.73-1.22-2.8-1.16-5.52.06-2.62.58-7.46,2.79-15.64,1.82-6.69,3.61-13.4,5.4-20.09l1.27-4.73c2.25-8.41,4.46-17.75,6.75-28.54,2.16-10.17,3.39-20.69,3.55-30.43.05-2.58.06-4.42.04-6.02,2.12,4.54,4.11,9.99,5.69,15.6,2.33,8.31,3.59,17.25,4.69,25.69,1.62,12.52,1.17,25.91.52,37.36Zm71.06-45.21h0s-.46,2.69-.46,2.69l-.64-1.78c-.92-2.54-1.8-5.15-2.61-7.77-1.82-5.88-2.17-9.26-2.15-11.06.02-2.15.35-3.95.96-5.36.68-1.58,1.42-2.79,2.28-3.7.25-.27.5-.52.74-.72l.53-.46.26.64c.26.63.49,1.32.7,2.06.65,2.3,1.07,4.76,1.26,7.32.22,2.91.32,5.31.31,7.12-.02,2.83-.42,6.54-1.17,11.03Z"/>
      </g>
    </g>
  </g>
</svg>