<?xml version="1.0" encoding="UTF-8"?>
<svg id="Calque_2" data-name="Calque 2" xmlns="http://www.w3.org/2000/svg" viewBox="0 0 762.74 234.89">
  <defs>
    <style>
      .cls-1 {
        fill: #f9ef87;
      }

      .cls-2 {
        fill: none;
        stroke: #f9ef87;
        stroke-width: .5px;
      }
    </style>
  </defs>
  <g id="Contenu">
    <g id="Titre_jaune" data-name="Titre jaune">
      <g>
        <path class="cls-1" d="m96.95,1.57c-3.34,10.47-7.07,23.84-9.48,34.45-2.56,11.27-4.53,23.02-6.08,34.48-1.89,14-2.92,28.29-3.18,42.39-.26,13.77-.26,27.94.87,41.76.71,8.66,1.39,17.47,2.84,26.02,1.26,7.42,2.79,13.14,4.42,17.05-10.09,3.73-20.1,7.65-30.04,11.76-.23.09-.35.14-.58.23-.63-1.82-1.14-4.34-1.66-7.44-.45-2.69-.9-6.1-1.25-10.15-.34-4.04-.49-9.11-.42-15.19.04-3.98.24-10.37.59-19.14.4-9.85.77-19.74,1.09-29.57.36-11.23.62-22.58.65-33.78.04-10.52-.17-21.18-.65-31.7-.44-9.5-1.44-17.37-2.83-23.46-1.4-6.09-3.36-9.09-5.88-8.92-.93.06-1.8.87-2.61,2.42-.81,1.56-1.52,3.43-2.13,5.63-.61,2.2-1.1,4.56-1.44,7.06-.35,2.51-.67,4.75-.94,6.72-.25,1.97-.38,2.95-.63,4.92,0,.26,0,.39,0,.65-.08.14-.12.21-.2.35.08-.14.12-.21.2-.35-1.39,10.86-2.88,21.7-4.47,32.51-1.63,11.03-3.28,22.1-4.81,33.13-1.38,9.89-2.69,19.85-3.86,29.79-1.08,9.16-1.63,16.68-1.66,22.44-.04,7.55.38,14.15,1.25,19.77.87,5.62,1.97,10.33,3,13.97,1.19,4.24,2.51,7.91,4.15,10.67-10,4.18-19.92,8.54-29.76,13.07,3.04-13.12,5.65-26.42,7.85-39.6,2.25-13.49,3.89-27.33,5.39-40.97,1.75-15.86,2.5-31.98,2.59-47.87.09-15.6-.16-31.45-1.32-47.11-.75-10.12-1.55-20.44-2.99-30.35C11.68,18.38,6.72,6.79,4.99,1.57c10.45-.23,20.98.21,31.44,0,.27,0,2.97,1.94,5.04,3.46,1.09.8,3.19,2.7,4.97,4.56,1.78,1.86,3.65,4.61,5.61,8.2,1.96,3.59,3.73,8.58,5.32,14.92,1.59,6.34,2.81,14.27,3.6,23.77.97,11.54.94,23.25.58,34.72-.27,8.83-.56,16.91-.58,23.91-.02,7.01.07,13.38.27,19.08,1.26-8.52,2.58-17.03,3.94-25.53,1.35-8.45,2.63-16.44,3.85-23.95,1.22-7.51,2.2-14.38,2.94-20.65.74-6.26,1.15-11.5,1.2-15.75.1-7.08-.29-13.26-1.14-18.58-.86-5.31-1.79-9.81-2.81-13.42-1.25-4.42-4.66-11.48-6.35-14.74,10.46-.09,23.63.09,34.09,0Z"/>
        <path class="cls-1" d="m141.54,1.57c6.14-.01,13.17,2.33,19.19,6.05,2.53,1.56,7.86,6.15,11.78,13.95,4.36,8.69,7.18,18.31,9.01,27.45,2.18,10.94,2.82,22.22,2.77,33.65-.05,11.42-1.48,23.41-4.26,34.49-2.59,10.34-5.91,20.04-10.25,29.84-3.47,7.84-8.84,16.16-14.64,22.57-5.51,6.09-11.31,10.19-17.42,11.98-6.11,1.78-11.82,1.1-17.14-2.28-5.32-3.38-9.86-8.9-13.67-16.59-4.51-9.11-6.91-19.14-8.85-28.87-2.46-12.36-3.02-25.55-2.82-38.08.21-12.96,1.49-26.29,4.13-39.29,2.23-10.98,5.57-21.93,10.02-32.07,3.21-7.32,6.7-12.1,13.15-17.44,5.78-4.79,12.85-5.35,18.99-5.37Zm-21.19,158.93c1.58.13,3.16-.03,4.75-.45,3.84-1.03,7.78-3.62,11.83-7.68,4.05-4.06,7.99-9.19,11.84-15.33,3.84-6.14,7.43-13.22,10.81-21.11,3.42-7.99,6.46-16.63,8.53-25.03,2.27-9.19,4.27-18.57,5.01-28.09.69-8.88.63-16.91-.28-24.08-.91-7.17-2.68-13.11-5.31-17.87-2.63-4.75-5.93-7.9-9.9-9.39-1.59-.49-3.19-.71-4.79-.67-3.87.1-7.84,1.7-11.9,4.91-4.06,3.21-8.02,7.64-11.86,13.37-3.84,5.73-7.42,12.69-10.77,20.81-3.6,8.71-6.33,17.94-8.45,26.92-2.4,10.18-3.94,20.57-4.92,31.13-.79,8.55-.73,17.88.32,26.47.93,7.65,2.65,13.82,5.19,18.41,2.54,4.59,5.84,7.13,9.91,7.69Z"/>
        <path class="cls-1" d="m278.5,1.57c-.02,1.07-.49,2.62-.59,3.76-.08.86-.26,1.88-.35,2.88-.08,1-.27,1.88-.54,2.65-2.17,7.85-4,15.88-5.52,23.86-1.52,8.04-2.82,15.87-3.82,23.4-1,7.54-1.77,14.7-2.29,21.45-.52,6.76-.83,12.78-.92,18.04,0,.46-.01.7-.02,1.16-.68,7.94-2.13,15.43-4.35,22.49-2.22,7.07-5.31,13.35-9.27,18.89-3.96,5.54-8.81,10.19-14.56,13.99-5.75,3.8-12.48,6.44-20.18,7.93-.49.09-.73.14-1.22.24-3.11.6-5.99.45-8.66-.48-2.66-.93-4.95-2.48-6.84-4.65-1.89-2.17-3.38-4.81-4.45-7.92-1.07-3.1-1.57-6.51-1.49-10.18.06-2.84.38-5.39.97-7.66,1.91-8.27,3.08-17.06,3.66-25.47.67-9.6,1.12-19.38,1.33-28.99.26-11.64.31-23.47-.34-35.17-.52-9.33-1.21-16.94-2.01-22.74-.93-6.79-2.01-13.48-3.25-17.49,10.48-.2,20.97.18,31.45,0,.11,1.29.34,3.41.52,4.81.15,1.23.17,2.82.21,4.59.03,1.77.01,3.79-.02,6.04-.15,9.26-1.37,19.16-3.29,28.18-1.97,9.27-4.14,18.72-6.61,27.93-2.21,8.25-4.42,16.53-6.66,24.79-2.04,7.53-3.11,13.72-3.21,18.49-.14,6.41,1.5,11.24,4.92,14.43,3.42,3.19,8.44,4.21,15.05,3.2,4.72-.72,9.11-2.44,13.14-5.12,4.03-2.68,7.57-5.96,10.61-9.84,3.04-3.88,5.48-8.27,7.33-13.2,1.84-4.93,3.01-10.09,3.31-15.33.74-13.06,1.08-26.53-.6-39.55-1.18-9.1-2.52-18.46-5.03-27.38-2.34-8.35-5.48-16.22-8.7-22.03,10.49-.16,21.78.14,32.27,0Z"/>
        <path class="cls-1" d="m281.78,1.86c33.87-.18,67.74-.28,101.62-.29-2.4,7.79-5.06,15.31-7.84,22.5-2.44,6.29-5.25,12.88-8.5,19.66-3.25,6.79-6.78,12.56-10.57,17.32-.68.75-1.29,1.12-1.83,1.13-.81.01-1.45-.35-1.92-1.08-.47-.73-.57-1.61-.29-2.65,1.91-4.75,3.82-10.3,5.73-16.65,1.91-6.35,2.87-12.61,2.89-18.8.02-5-.44-8.73-1.37-11.15-.93-2.43-2.13-4.15-3.59-5.18-.8-.59-1.64-.69-2.51-.33-.87.37-1.44,1-1.71,1.89-1.22,3.1-2.62,7.13-4.18,12.09-1.57,4.96-3.12,10.63-4.64,17-1.52,6.38-2.81,13.32-3.88,20.81-1.07,7.5-1.62,15.41-1.69,23.7-.09,10.38.11,20.85,1.3,31.16.94,8.16,2.01,14.88,3.24,19.95,1.41,5.82,3.07,10.44,4.83,13.77-10.82.5-21.63,1.21-32.43,2.12-.12-1.78-.09-3.5-.15-4.92-.05-1.27-.21-2.71-.26-4.13-.05-1.41-.08-2.5-.07-3.25.05-4.78.52-10.16,1.4-16.12.88-5.95,2-12.18,3.36-18.66,1.36-6.48,2.78-13.07,4.26-19.75,1.49-6.68,2.9-13.02,4.23-19,1.34-5.98,2.43-11.51,3.28-16.57.85-5.06,1.29-9.3,1.32-12.72.02-2.08-.09-4.75-.33-8.01-.24-3.26-.78-6.41-1.63-9.45-.84-3.03-2.06-5.67-3.64-7.89-1.58-2.22-3.71-3.33-6.39-3.32-1.6,0-3.35.43-5.23,1.26-1.88.83-3.67,2.16-5.36,3.97-1.69,1.82-3.13,4.09-4.3,6.81-1.17,2.72-1.78,5.9-1.83,9.51-.05,3.77.83,8.57,2.64,14.38,1.81,5.81,3.83,11.38,6.06,16.69.39,1.04.31,1.98-.23,2.82-.55.84-1.23,1.28-2.04,1.31-.54.02-1.14-.33-1.81-1.06-2.78-3.8-5.73-7.75-8.83-11.87-3.1-4.11-5.93-8.53-8.48-13.24-2.55-4.71-4.65-9.87-6.3-15.48-1.65-5.61-2.43-11.72-2.32-18.29Z"/>
        <path class="cls-1" d="m416.41,1.57c-3.23,7.42-6.14,16.25-8.25,23.9-2.24,8.11-4.38,16.89-5.64,25.26-1.56,10.33-2.31,20.56-2.43,31.01-.11,10.2.35,20.71,1.63,30.94,1.03,8.25,2.22,15,3.45,20.18,1.4,5.9,2.98,10.62,4.78,14.06-10.75-.35-21.51-.5-32.26-.45-.14-1.76-.27-3.39-.41-4.85-.13-1.31-.24-2.68-.3-4.08-.07-1.39-.1-2.46-.1-3.2,0-4.56.42-9.74,1.24-15.55.82-5.81,1.88-11.92,3.17-18.31,1.29-6.39,2.68-12.83,4.17-19.29,1.49-6.46,2.87-12.64,4.14-18.51,1.27-5.87,2.31-11.31,3.11-16.31.8-5,1.19-9.19,1.18-12.57-.01-5.15-.49-9.68-1.44-13.57-.94-3.9-1.93-7.3-3.03-10.04-1.28-3.21-2.89-6.25-4.63-8.6,10.42.15,21.19-.17,31.62,0Z"/>
        <path class="cls-1" d="m478.45,98.49c6.05-2.28,12.3-4.09,18.75-5.4-.47,8.06-2,16.76-4.45,24.43-2.34,7.33-5.19,13.62-8.64,18.75-3.45,5.13-7.37,9-11.76,11.65-4.39,2.65-9.12,3.73-14.17,3.28-5.6-.5-10.92-2.87-15.95-7.08-5.03-4.21-9.39-9.75-13.15-16.47-3.95-7.08-6.99-15.77-8.85-23.56-2.21-9.27-3.27-19.18-3.33-28.46-.06-9.29.86-19.23,2.96-28.54,1.71-7.62,4.58-16.16,8.4-23.09,3.58-6.51,7.77-11.76,12.62-15.61,4.84-3.84,9.91-6.83,15.39-6.81,4.28.02,8.88,1.8,12.78,4.17,3.91,2.38,7.08,6.23,10.36,10.63,3.28,4.4,6.21,9.6,8.78,15.58,2.58,5.99,4.67,12.65,6.27,19.98-.53.44-1.63,1.16-3.29,2.15-1.66,1-3.39,2.06-5.19,3.2-1.8,1.14-3.5,2.2-5.09,3.19-1.6.99-2.73,1.69-3.4,2.12.33-4.85.69-9.82,1.09-14.91.39-5.09.49-9.85.29-14.28-.2-4.42-.86-8.26-1.98-11.47-1.12-3.22-2.98-5.34-5.51-6.25-3.58-1.29-7.44-.93-11.43.97-3.99,1.9-7.87,5-11.65,9.28-3.77,4.28-7.28,9.62-10.51,16.03-3.23,6.41-5.9,13.51-8,21.32-2.1,7.81-3.36,15.4-3.78,22.79-.42,7.39-.1,14.07.97,20.03,1.07,5.97,2.84,11.04,5.33,15.24,2.49,4.2,5.58,7.01,9.27,8.42,1.5.54,2.94.85,4.3.94,5.73.38,11.55-2.38,17.45-8.19,6.9-6.79,11.03-15.39,15.11-24.04Z"/>
        <path class="cls-1" d="m519.65,4.05c3.59,4.74,10.6,35.76,5.28,51.32-.26.76-.79,1.39-1.5,1.77-3.85,2.03-8.14,1.76-11.8-.52-.1-.06-.14-.17-.12-.28,2.55-11.2-7.55-35.89-15.05-54.26-.13-.32.08-.67.42-.7,7.05-.75,14.82-.6,22.52,2.5.09.04.18.09.24.17Z"/>
        <path class="cls-1" d="m634.45,1.57c1.09,1.13,4.94,2.73,6.29,8.92.31,1.41.07,3.59-.68,6.25-.75,2.67-2.42,5.99-5,9.91-4.14,6.23-8.46,11.13-12.98,14.76-4.52,3.63-8.91,6.76-13.18,9.4-4.27,2.64-8.38,5.25-12.32,7.83-3.94,2.58-7.47,5.94-10.58,10.06-3.11,4.12-5.73,9.26-7.87,15.41-2.61,7.5-3.78,16.37-4.28,24.13-.68,10.5-.43,21.76,3.1,31.85,2.92,8.35,7.77,13.33,14.33,14.81,3.34.75,6.19.21,8.55-1.67,2.35-1.88,4.28-4.71,5.8-8.48,1.51-3.77,2.58-8.32,3.19-13.64.62-5.32.86-10.91.74-16.74,4.72.74,7.07,1.12,11.78,1.9.13,8.7.73,17.56,1.73,26.18.83,7.16,2.12,14.68,3.93,22.55,1.81,7.87,4.42,14.59,7.82,20.18-29.19-9.09-58.64-16.74-88.57-23.01.04-4.35.35-9.37,1.1-14.83.64-4.68,1.8-10.46,3.26-17.21,1.47-6.75,3.63-14.38,6.55-22.79,2.61-7.49,5.78-14.49,9.38-20.96,3.6-6.47,7.41-12.5,11.43-18.1,4.01-5.59,7.97-10.73,11.87-15.39,3.9-4.66,7.4-8.95,10.52-12.85,3.11-3.89,5.61-7.4,7.47-10.48,1.86-3.08,2.78-5.7,2.73-7.83-.04-1.77-.43-3.12-1.19-4.03-.75-.91-2.9-1.2-6.32-1.01-2.24.13-5.19.62-8.77,1.54-3.58.92-7.25,2.6-11,5.01-3.75,2.41-7.28,5.77-10.59,10.05-3.31,4.28-5.83,9.85-7.55,16.7-2.48.12-3.72.18-6.21.31-.05-2.14-.02-4.45-.14-6.69-.11-1.93-.29-4.14-.34-6.45-.05-2.31-.1-4.46-.14-6.44-.08-3.63-.62-7-1.62-10.08-1-3.08-2.17-5.8-3.38-8.11-3.42-6.54-6.25-8.63-8.03-10.94,30.09.23,59.05-.36,89.14,0Z"/>
        <path class="cls-1" d="m680.3,1.57c-2.92,10.2-7.23,23.71-9.38,34.11-2.25,10.86-3.86,21.86-5.13,32.88-1.54,13.43-1.93,26.95-1.79,40.35.14,13.54.68,27.39,2.17,40.92,1.01,9.14,2.08,18.37,3.69,27.44,1.45,8.18,3.05,14.87,4.82,19.99-10.25-3.67-20.58-7.14-30.96-10.42-.18-2.27-.34-4.37-.51-6.26-.16-1.71-.3-3.46-.4-5.25-.1-1.78-.16-3.14-.18-4.07-.11-5.76.16-12.19.81-19.34.65-7.15,1.53-14.64,2.63-22.49,1.1-7.86,2.31-15.79,3.61-23.81,1.3-8.02,2.52-15.74,3.64-23.14,1.12-7.4,2.02-14.31,2.71-20.7.68-6.39.98-11.8.91-16.2-.12-6.68-.69-12.6-1.71-17.7-1.02-5.1-2.07-9.52-3.23-13.11-1.35-4.18-5.03-10.16-6.82-13.2,10.4.35,24.71-.39,35.11,0Z"/>
        <path class="cls-1" d="m740.77,94.28c2.88.55,5.53,1.52,7.95,2.9s4.51,3.46,6.27,6.23c1.76,2.77,3.13,6.3,4.11,10.55.98,4.26,1.46,9.52,1.47,15.76,0,1.85-.23,4.91-.68,9.16-.45,4.25-.93,9.06-1.44,14.41-.51,5.36-.99,11.05-1.43,17.08-.44,6.03-.66,11.78-.65,17.28,0,5.27.2,10.61.59,16.04.39,5.44.74,10.34,1.16,14.61.47,4.79,1.08,9.58,1.72,14.26-9.53-4.48-19.14-8.78-28.83-12.92.18-9.71.39-19.41,2.21-28.97,1.57-8.22,3.31-15.84,5.27-22.79,1.96-6.95,3.74-13.77,5.33-20.44,1.59-6.66,2.38-13.86,2.35-21.5-.02-6.51-1.11-11.32-3.27-14.37-2.16-3.05-4.36-4.79-6.58-5.27-1.57-.34-2.81-.16-3.72.52-2.47,1.88-4.83,5.38-7.07,10.45-2.24,5.08-4.18,11.02-5.81,17.82-1.63,6.8-2.93,13.89-3.9,21.3-.97,7.41-1.42,14.46-1.35,21.21.02,1.9.14,4.15.36,6.75.22,2.6.45,5.35.76,8.17.4,3.72.64,6.84.67,9.27.02,2.44-.04,4.49-.13,6.11-.12,2.05-.29,3.68-.53,4.84-10.1-4.09-20.28-7.99-30.52-11.7-.17-2.45-.32-4.8-.49-7.03-.14-1.83-.28-3.72-.37-5.64-.09-1.92-.15-3.37-.16-4.37-.09-6.18.2-13.08.87-20.74.67-7.66,1.57-15.68,2.69-24.1,1.13-8.51,2.36-17.03,3.67-25.52,1.28-8.26,2.52-16.54,3.71-24.82,1.15-7.94,2.08-15.37,2.78-22.24.71-6.87,1.03-12.69.98-17.42-.09-7.19-.63-13.56-1.63-19.05-1-5.49-2.03-10.24-3.17-14.11-1.33-4.5-5.31-11.17-7.09-14.44,10.4.39,25.62-.43,36.01,0-3.19,10.96-8.08,26.21-10.15,37.32-2.16,11.57-4.02,23.56-5.28,35.23-1.54,14.24-2.05,28.86-1.98,43.27.01,2.68.06,5.3.09,7.79.03,2.49.12,4.9.28,7.22,1.83-8.47,4.95-17.53,8.95-25.2,3.74-7.18,7.01-13.13,9.87-17.57,1.68-2.71,3.6-5.62,5.74-8.75,2.14-3.13,4.16-6.87,6.04-11.22,1.88-4.35,3.47-9.35,4.76-14.98,1.29-5.63,1.93-12.05,1.9-19.2-.02-5.8-.24-10.62-.65-14.43-.41-3.81-.92-6.96-1.44-9.41-.56-2.66-2.87-8.5-3.68-10.07,7.99.17,12.3-.17,20.28,0,.53,1.17,2.34,6.79,2.74,8.64.4,1.86.73,4.01,1,6.45.27,2.44.4,5.4.4,8.87,0,8.8-1.29,16.81-3.86,23.89-2.57,7.08-5.65,13.41-9.24,18.99-3.6,5.57-7.28,10.46-11.06,14.67-3.78,4.21-6.83,8.01-9.17,11.47-1.55,2.31-3.56,5.59-6.01,9.79-2.45,4.2-4.79,9.06-7.02,14.56-2.23,5.5-4.13,11.63-5.68,18.42-1.56,6.79-2.29,13.99-2.21,21.7.02,1.88.03,2.81.05,4.69.72,6.88,1.44,13.05,2.14,18.5.7,5.46,1.4,10.1,2.08,13.91-.14-.89-.24-1.66-.31-2.31-.07-.65-.11-1.29-.12-1.92-.29-2.82-.57-5.59-.86-8.3-.29-2.71-.44-5.21-.47-7.52-.06-5.65.26-11.74.97-18.32.71-6.57,1.72-13.04,3.02-19.42,1.3-6.38,2.91-12.37,4.82-17.97,1.91-5.61,4.02-10.32,6.35-14.14.26-.59.87-1.59,1.84-3.01.97-1.42,2.14-2.86,3.5-4.33,1.36-1.47,2.93-2.69,4.69-3.67,1.76-.98,3.62-1.29,5.59-.91Z"/>
      </g>
      <g>
        <path class="cls-2" d="m522.96-4.94c-5.96-2.4-12.29-3.57-19.36-3.57-2.47,0-4.99.14-7.71.43-3.12.33-5.94,2.14-7.54,4.82-1.61,2.69-1.86,6.02-.66,8.96l.04.1c1.84,4.51,4.38,10.72,6.82,17.24-2.28-4.56-4.79-8.71-7.5-12.35-4.33-5.81-8.02-10.02-13.04-13.07-5.93-3.61-12.05-5.53-17.67-5.56-.02,0-.11,0-.13,0-9.01,0-16.43,5.06-21.23,8.87-5.74,4.55-10.79,10.77-15.03,18.47-.04.07-.08.15-.12.22,1.69-5.25,3.5-10.14,5.29-14.26l.6-1.38c1.13-2.61.89-5.61-.65-8-1.54-2.39-4.17-3.85-7.01-3.9l-1.5-.02c-2.17-.04-4.51-.05-7.15-.05-3.07,0-6.21.02-9.3.05-2.97.02-6.04.05-9.03.05-2.26,0-4.27-.01-6.15-.04,0,0-.06,0-.15,0,0,0-.02,0-.03,0h-.09c-.56,0-1.83-.03-1.86-.03-.13,0-.26.02-.39.03-33.37,0-67.23.11-100.67.29h0c-.71-.19-1.45-.3-2.2-.3-.04,0-1.14.01-1.14.01-1.88.03-3.9.04-6.18.04-3.08,0-6.2-.02-9.42-.04-3.14-.02-6.28-.04-9.39-.04-2.72,0-5.11.02-7.3.05l-1.67.03c-2.99.05-5.73,1.66-7.23,4.25s-1.52,5.77-.07,8.38l.81,1.46c2.93,5.28,5.72,12.38,7.86,19.98,2.38,8.46,3.65,17.5,4.75,26.03,1.64,12.71,1.19,26.24.54,37.79-.23,4.11-1.15,8.33-2.72,12.54-1.49,3.97-3.47,7.56-5.91,10.67-2.4,3.06-5.22,5.68-8.4,7.8-2.86,1.91-6,3.13-9.31,3.64-1.16.18-2.23.27-3.18.27-2.86,0-3.69-.77-3.96-1.02-1.67-1.56-1.96-4.82-1.9-7.28.06-2.75.61-7.8,2.88-16.21,1.54-5.71,3.07-11.42,4.6-17.13l2.06-7.68c2.22-8.27,4.42-17.57,6.73-28.42,2.14-10.05,3.35-20.42,3.5-30.01.03-1.98.06-4.29.02-6.35v-.17c-.04-1.92-.07-3.73-.28-5.41-.17-1.36-.39-3.33-.48-4.42l-.08-.93c-.36-4.42-4.05-7.81-8.47-7.81-.05,0-1.08.02-1.08.02-1.88.03-3.88.05-6.12.05-2.92,0-5.9-.03-8.78-.05h-.22c-3.01-.03-6.11-.06-9.17-.06-2.63,0-4.98.02-7.18.06l-1.33.03c-2.67.05-5.17,1.36-6.73,3.53-1.56,2.17-2.02,4.95-1.23,7.5l.4,1.27c1.29,4.16,2.51,13.04,2.91,15.96.77,5.63,1.4,12.72,1.88,21.08-2.17-8.99-5.03-17.09-8.55-24.11-4.47-8.91-10.82-15.02-15.27-17.78-7.68-4.75-16.48-7.47-24.2-7.47-7.89.02-17.04.93-25.04,7.55-6.63,5.49-10.86,10.74-14.46,18.07,1.29-4.52,2.64-9.02,3.98-13.23l.42-1.31c.83-2.6.36-5.43-1.26-7.63-1.6-2.18-4.15-3.46-6.85-3.46-.02,0-1.45.01-1.45.01-2.1.02-4.31.02-6.58.02-3.19,0-6.52-.01-9.85-.03h-.73c-3.25-.02-6.5-.03-9.63-.03-2.53,0-4.98,0-7.31.03h-1.63c-2.96.04-5.69,1.6-7.21,4.13-1.19,1.97-1.51,4.31-.95,6.49-1.73-1.78-4.14-4.03-5.89-5.32-5.41-3.97-7.23-5.3-10.66-5.3-.06,0-.11,0-.17,0-1.93.04-3.96.06-6.23.06-2.98,0-6.02-.03-8.98-.06-3.01-.03-6.13-.06-9.19-.06-2.61,0-4.92.02-7.08.07l-1.35.03c-2.69.06-5.2,1.39-6.76,3.6s-1.97,5.01-1.13,7.57l.42,1.28c.48,1.45,1.12,3.18,1.89,5.25C-.08,15.34,2.74,22.94,3.56,28.59c1.35,9.28,2.12,18.94,2.91,29.69.99,13.32,1.4,28.05,1.29,46.35-.1,16.79-.95,32.56-2.53,46.88-1.45,13.13-3.1,27.12-5.32,40.45-2.23,13.36-4.83,26.49-7.73,39.02l-.46,1.99c-.73,3.16.4,6.46,2.91,8.51,1.55,1.26,3.45,1.91,5.37,1.91,1.21,0,2.42-.26,3.55-.78l1.85-.85c9.71-4.47,19.62-8.82,29.45-12.93l1.06-.44c2.27-.95,4.03-2.84,4.8-5.18.77-2.34.49-4.9-.77-7.02l-.59-.99c-1.02-1.72-2.06-4.46-3.17-8.38-1.12-3.99-2.05-8.31-2.75-12.84-.79-5.12-1.17-11.26-1.14-18.27.03-5.4.56-12.6,1.59-21.38,1.03-8.81,2.29-18.49,3.83-29.59,1.34-9.64,2.79-19.43,4.18-28.89l.61-4.16c.83-5.66,1.66-11.44,2.46-17.29.18,6.55.26,13.26.23,20.05-.03,10.09-.25,21.05-.65,33.5-.34,10.66-.76,21.36-1.09,29.49-.35,8.74-.55,15.28-.59,19.42-.07,6.34.09,11.76.46,16.1.33,3.83.78,7.5,1.34,10.89.68,4.1,1.29,6.78,2.05,8.98l.34,1c.76,2.21,2.39,4,4.51,4.97,1.12.51,2.32.77,3.53.77,1.08,0,2.16-.21,3.18-.62l1.62-.65c9.78-4.04,19.78-7.95,29.71-11.63l.98-.36c2.17-.8,3.92-2.46,4.85-4.58.93-2.12.95-4.53.05-6.67l-.4-.96c-1.39-3.35-2.75-8.67-3.82-14.99-1.32-7.79-2-16.09-2.65-24.14l-.09-1.06c-.68-8.35-.92-16.84-.97-24.93.34,2.31.73,4.55,1.16,6.73,2.04,10.21,4.62,21.07,9.65,31.23,4.58,9.24,10.33,16.1,17.1,20.39,4.93,3.13,10.27,4.71,15.86,4.71,2.95,0,5.99-.45,9.03-1.34,7.65-2.24,14.99-7.19,21.8-14.73,6.44-7.13,12.38-16.28,16.28-25.1,2.08-4.69,3.93-9.4,5.61-14.16-.05.72-.09,1.45-.1,2.19-.1,4.79.57,9.32,2,13.48,1.46,4.26,3.58,7.98,6.28,11.07,2.98,3.41,6.63,5.89,10.86,7.37,2.6.91,5.36,1.37,8.19,1.37,1.76,0,3.59-.18,5.42-.54l1.21-.23c8.9-1.72,16.85-4.86,23.61-9.33,6.72-4.44,12.46-9.95,17.06-16.39,4.53-6.35,8.1-13.6,10.6-21.57,2.42-7.69,4.02-15.95,4.75-24.53,0-.03.03-.4.03-.53,0-.03.02-1.27.02-1.27.09-5.05.39-10.93.89-17.47.51-6.56,1.26-13.6,2.23-20.93.9-6.76,2.1-14.15,3.56-21.95.45.91.9,1.84,1.37,2.72,2.76,5.1,5.87,9.95,9.25,14.43,3.1,4.11,6.04,8.07,8.77,11.79.18.25.42.54.63.77,3.13,3.43,6.51,4.16,8.8,4.16.07,0,.34,0,.38,0,2.26-.08,4.38-.8,6.21-2.06-.77,3.47-1.57,7.04-2.38,10.71-1.47,6.62-2.91,13.31-4.29,19.87-1.39,6.64-2.55,13.1-3.46,19.22-.94,6.36-1.45,12.22-1.5,17.4,0,.92.01,2.13.07,3.71.03.87.1,1.74.16,2.61.04.53.08,1.05.1,1.54.02.46.03.97.04,1.53.02,1.02.04,2.3.13,3.63l.07,1.02c.15,2.28,1.21,4.4,2.94,5.89,1.55,1.33,3.52,2.06,5.55,2.06.24,0,.48,0,.71-.03l1.01-.08c10.62-.89,21.41-1.6,32.07-2.09l1.58-.07c2.91-.14,5.55-1.75,6.99-4.28,1.44-2.53,1.49-5.62.13-8.2l-.74-1.39c-1.43-2.7-2.85-6.8-4-11.55-1.1-4.55-2.12-10.88-3.03-18.81-1.23-10.69-1.31-21.64-1.24-29.99.04-4.32.21-8.53.53-12.61,2,1.54,4.45,2.38,7.09,2.38.04,0,.12,0,.16,0,2.25-.03,5.6-.79,8.76-4.28.12-.13.25-.29.36-.43,4.24-5.32,8.18-11.76,11.72-19.15,3.07-6.41,5.92-13.01,8.5-19.61.16,1.74.25,3.61.25,5.59,0,2.88-.35,6.59-1.07,11.05-.77,4.84-1.79,10.16-3.01,15.8-1.28,5.89-2.66,12.08-4.11,18.4-1.49,6.46-2.91,13.03-4.22,19.54-1.33,6.56-2.42,12.91-3.27,18.86-.88,6.23-1.33,11.91-1.33,16.88,0,.9.04,2.1.11,3.66.07,1.43.18,2.91.34,4.54.14,1.44.26,3.03.39,4.67l.07.93c.34,4.43,4.04,7.85,8.48,7.85h.04s3.5-.01,4.79-.01c9.31,0,18.75.15,28.05.46l1.71.06c.09,0,.18,0,.28,0,2.92,0,5.64-1.5,7.2-3.98,1.61-2.56,1.74-5.78.34-8.46l-.79-1.51c-.96-1.84-2.42-5.39-3.96-11.87-1.23-5.16-2.32-11.6-3.27-19.16-.34-2.73-.62-5.53-.85-8.39.22,1.06.45,2.12.7,3.17,2.26,9.49,5.74,18.72,9.8,25.99,4.36,7.81,9.52,14.25,15.34,19.12,6.53,5.48,13.67,8.59,21.21,9.26,1.02.09,2.04.14,3.05.14,5.99,0,11.66-1.6,16.88-4.75,5.57-3.37,10.53-8.24,14.73-14.48,3.86-5.74,7.17-12.86,9.81-21.17,2.62-8.24,4.36-17.74,4.88-26.77l.07-1.3c.15-2.63-.93-5.19-2.92-6.92-1.56-1.35-3.54-2.08-5.57-2.08-.56,0-1.13.06-1.7.17l-1.27.26c-6.89,1.4-13.69,3.36-20.22,5.83l-.38.14c-2.06.78-3.74,2.33-4.68,4.32l-.18.38c-3.78,8.02-7.36,15.59-13.18,21.31-3.65,3.59-7.03,5.49-9.76,5.49-.14,0-.28,0-.41-.01-.26-.02-.8-.09-1.62-.37-1.58-.64-3.06-2.1-4.4-4.35-1.89-3.2-3.29-7.26-4.15-12.07-.93-5.2-1.21-11.2-.83-17.82.38-6.69,1.55-13.71,3.47-20.87,1.91-7.13,4.37-13.69,7.3-19.5,2.86-5.66,5.94-10.38,9.15-14.02,2.92-3.3,5.81-5.65,8.61-6.99,1.11-.53,2.14-.81,2.96-.81.23,0,.46.02.69.07.06.13.14.32.23.56.81,2.34,1.31,5.29,1.46,8.78.18,4.04.09,8.45-.27,13.11-.38,4.95-.75,9.99-1.09,15l-.13,1.98c-.22,3.2,1.38,6.25,4.14,7.89,1.34.8,2.84,1.19,4.34,1.19,1.59,0,3.18-.44,4.57-1.33l1.67-1.06c.64-.41,1.74-1.09,3.29-2.05,1.63-1,3.36-2.09,5.18-3.24,1.74-1.1,3.42-2.13,4.98-3.07,2.16-1.29,3.5-2.18,4.46-2.97l.47-.39c.42-.34.78-.73,1.11-1.13.4,2.81,2,5.38,4.51,6.94,3.49,2.17,7.43,3.32,11.4,3.32,3.43,0,6.74-.83,9.85-2.47,2.86-1.51,5.01-4.03,6.06-7.11,6.33-18.54-1.45-53.19-6.71-60.14-1.09-1.44-2.57-2.56-4.25-3.24Zm-210.35,31.66c.03-2.34.39-4.32,1.06-5.88.73-1.7,1.58-3.07,2.52-4.08,1.01-1.08,1.79-1.56,2.27-1.77.22-.1.42-.18.59-.24.67,1.15,1.23,2.5,1.66,4.04.67,2.42,1.11,4.98,1.31,7.61.22,2.99.32,5.42.31,7.23-.02,2.91-.42,6.68-1.19,11.22-.39,2.31-.83,4.74-1.33,7.27-1.8-4.45-3.47-9.14-4.98-13.97-1.87-6.01-2.23-9.53-2.21-11.43ZM114.39,108.82c1.01-10.96,2.55-20.71,4.7-29.83,2.25-9.51,4.93-18.08,7.99-25.47,3.15-7.63,6.48-14.07,9.89-19.15,3.24-4.83,6.55-8.6,9.85-11.2,2.32-1.83,4.49-2.83,6.27-2.87h.11c.44,0,.89.06,1.36.18,2.07.9,3.67,3.19,4.66,4.98,2.04,3.68,3.45,8.55,4.2,14.47.81,6.4.89,13.65.23,22.15-.72,9.3-2.81,18.64-4.76,26.55-1.83,7.41-4.6,15.56-8.03,23.56-3.27,7.62-6.67,14.29-10.13,19.81-3.47,5.54-7,10.14-10.51,13.66-3.76,3.78-6.35,4.89-7.56,5.21-.42.11-.83.17-1.22.17h-.03c-.49-.12-1.41-.59-2.65-2.83-1.31-2.37-3.08-6.88-4.07-14.95-.94-7.68-1.04-16.36-.29-24.44Z"/>
        <path class="cls-2" d="m767.92,154.19c.51-5.37.99-10.19,1.43-14.31.49-4.62.73-7.94.73-10.17,0-6.93-.58-12.95-1.71-17.88-1.22-5.3-3.02-9.85-5.35-13.52-2.59-4.07-5.81-7.23-9.58-9.38-1.9-1.09-3.92-1.99-6.03-2.71,3.15-3.8,6.24-8.05,9.21-12.66,3.96-6.14,7.39-13.17,10.19-20.9,2.94-8.1,4.42-17.23,4.42-27.12,0-3.81-.15-7.14-.46-9.9-.3-2.75-.69-5.25-1.15-7.41-.53-2.46-2.52-8.69-3.38-10.58l-.26-.57c-1.35-2.98-4.29-4.92-7.56-4.99h-.63c-1.65-.05-3.27-.07-4.94-.07-1.95,0-3.75.02-5.5.05h-.27c-1.66.03-3.38.05-5.23.05-1.47,0-2.9-.02-4.35-.04,0,0-1.79-.04-1.85-.04-2.17,0-4.23.83-5.78,2.27-1.46-1.31-3.34-2.09-5.33-2.17l-1.28-.05c-2.23-.09-4.8-.14-7.85-.14-3.58,0-7.39.06-11.14.12-3.56.06-7.24.12-10.59.12-2.53,0-4.64-.03-6.47-.1l-1.75-.07c-.11,0-.21,0-.32,0-.7,0-1.38.09-2.04.25-.39-.07-.77-.12-1.17-.14l-1.28-.05c-2.23-.08-4.75-.12-7.72-.12-3.45,0-7.1.06-10.7.11-3.46.05-7.04.11-10.34.11-2.48,0-4.57-.03-6.4-.09l-1.82-.06c-.1,0-.19,0-.29,0-1.54,0-3.03.43-4.31,1.19-1.24-.71-2.65-1.1-4.11-1.12h-.41c-6.8-.09-14.08-.13-22.27-.13s-17.12.04-25.46.08h-.52c-8.42.04-17.11.09-25.73.09-5.47,0-10.45-.02-15.2-.05,0,0-2.1-.02-2.12-.02-3.23,0-6.18,1.83-7.62,4.72-1.45,2.91-1.1,6.4.88,8.97l1.26,1.63c.71.92,1.46,1.74,2.12,2.47,1.5,1.65,3.06,3.35,5.01,7.07,1.06,2.02,1.99,4.25,2.76,6.64.71,2.18,1.1,4.65,1.16,7.34l.14,6.44c.04,1.85.16,3.64.25,5.09.04.58.07,1.14.1,1.69.07,1.28.09,2.7.1,4.09,0,.77.02,1.54.03,2.27l.02,1.03c.05,2.3,1.02,4.48,2.71,6.04,1.58,1.47,3.65,2.28,5.79,2.28.14,0,.28,0,.42-.01l7.97-.4c3.74-.18,6.92-2.79,7.83-6.42l.18-.72c1.39-5.54,3.36-9.98,5.85-13.2,2.65-3.42,5.41-6.07,8.21-7.87,2.91-1.87,5.67-3.14,8.22-3.8.53-.14,1.03-.26,1.5-.37-1.45,2.16-3.19,4.51-5.21,7.04-3.29,4.11-6.79,8.38-10.39,12.69-3.98,4.76-8.12,10.13-12.3,15.95-4.21,5.86-8.25,12.26-12.01,19.02-3.96,7.12-7.34,14.67-10.05,22.46-2.96,8.5-5.27,16.53-6.87,23.89-1.78,8.18-2.79,13.55-3.39,17.94-.74,5.4-1.14,10.79-1.19,16.03v.82c-.04,4.05,2.79,7.57,6.75,8.4l.8.17c29.49,6.18,58.99,13.85,87.69,22.78l2.53.79c.83.26,1.68.38,2.53.38.65,0,1.3-.08,1.93-.22.4.2.81.37,1.24.5l.64.2c10.23,3.23,20.53,6.7,30.62,10.3l1.96.7c.93.33,1.9.5,2.86.5.46,0,.91-.05,1.36-.12.94,1.09,2.14,1.96,3.55,2.47l.61.22c10.09,3.65,20.25,7.55,30.2,11.57l1.11.45c1.03.41,2.11.62,3.19.62,1.38,0,2.75-.33,4-1,.42-.22.82-.48,1.19-.77.21,3.18,2.18,6,5.15,7.26l.62.26c9.54,4.07,19.13,8.37,28.52,12.78l1.66.78c1.15.54,2.38.81,3.61.81,1.78,0,3.55-.56,5.04-1.65,2.51-1.84,3.81-4.91,3.39-8l-.25-1.82c-.56-4.15-1.21-9.05-1.68-13.9-.42-4.29-.78-9.41-1.14-14.37-.37-5.19-.56-10.36-.57-15.37,0-5.24.2-10.82.63-16.57.44-5.98.92-11.66,1.42-16.88Zm-137.09-38.91c-.06-4.11-3.06-7.58-7.11-8.26l-.83-.14c-4.76-.79-7.09-1.16-11.87-1.91l-1.18-.18c-.44-.07-.88-.1-1.31-.1-2.04,0-4.04.74-5.6,2.1-1.89,1.66-2.96,4.07-2.91,6.58l.03,1.19c.11,5.38-.11,10.57-.68,15.44-.52,4.46-1.38,8.23-2.57,11.2-1.09,2.71-2.18,3.96-2.81,4.51-.11,0-.32-.02-.63-.09-1.18-.27-4.78-1.07-7.44-8.67-2.54-7.25-3.36-16.18-2.59-28.09.57-8.78,1.84-16.06,3.78-21.63,1.8-5.19,3.98-9.5,6.48-12.8,2.44-3.23,5.2-5.87,8.2-7.84,3.72-2.44,7.79-5.03,12.11-7.7,4.65-2.88,9.41-6.27,14.14-10.07,5.29-4.25,10.31-9.94,14.95-16.93.94-1.43,1.78-2.8,2.52-4.12.13.64.27,1.3.41,1.98.91,4.52,1.42,9.9,1.53,16,.07,4-.22,9.05-.85,15.02-.67,6.27-1.56,13.1-2.65,20.28-1.14,7.53-2.36,15.28-3.62,23.04-1.3,7.99-2.53,16.07-3.64,24.01-1.12,7.99-2.03,15.71-2.69,22.95,0,.1-.02.2-.03.31-.58-3.39-1.07-6.74-1.45-10.02-.98-8.49-1.55-16.98-1.67-25.23v-.83Zm49.4-77.67c1.12-5.43,2.93-11.95,4.78-18.32.91,3.19,1.81,7.29,2.76,12.53.9,4.94,1.39,10.82,1.47,17.47.05,4.35-.26,9.84-.93,16.33-.69,6.71-1.61,14.06-2.74,21.85-1.23,8.53-2.48,16.85-3.7,24.72-1.32,8.48-2.56,17.13-3.7,25.72-.75,5.62-1.4,11.08-1.95,16.32-.21-1.81-.41-3.62-.62-5.44-1.28-11.58-1.95-24.29-2.11-39.97-.16-15.07.4-27.51,1.73-39.17,1.37-11.95,3-22.43,4.99-32.04Zm36.67,37.54c1.15-10.67,2.9-22.28,5.18-34.51,1.55-8.28,4.83-19.26,7.74-28.99.2-.67.4-1.33.59-1.98.59,1.58,1.14,3.19,1.3,3.94.49,2.34.94,5.27,1.29,8.47.38,3.47.58,7.99.6,13.45.03,6.4-.53,12.13-1.66,17.03-1.16,5.04-2.58,9.53-4.22,13.34-1.63,3.77-3.36,7-5.16,9.62-2.27,3.31-4.22,6.28-5.95,9.06-.21.33-.42.67-.64,1.01.26-3.57.58-7.05.94-10.44Zm7.09,102.35c-.06-6.28.37-12.97,1.27-19.89.92-7.03,2.17-13.87,3.72-20.31,1.49-6.21,3.26-11.65,5.26-16.19.52-1.17,1-2.15,1.44-2.96.44,1.22.99,3.58,1,7.83.02,6.87-.68,13.34-2.09,19.26-1.57,6.57-3.33,13.32-5.23,20.06-1.75,6.21-3.35,12.94-4.86,20.5-.07-.76-.13-1.51-.19-2.24-.2-2.35-.31-4.38-.32-6.05Z"/>
      </g>
    </g>
  </g>
</svg>