<?xml version="1.0" encoding="UTF-8"?>
<svg id="Calque_2" data-name="Calque 2" xmlns="http://www.w3.org/2000/svg" viewBox="0 0 760.3 232.13">
  <defs>
    <style>
      .cls-1 {
        fill: #fffef5;
      }
    </style>
  </defs>
  <g id="Contenu">
    <g id="Titre_jaune" data-name="Titre jaune">
      <path class="cls-1" d="m95.52.57c-3.34,10.47-7.07,23.84-9.48,34.45-2.56,11.27-4.53,23.02-6.08,34.48-1.89,14-2.92,28.29-3.18,42.39-.26,13.77-.26,27.94.87,41.76.71,8.66,1.39,17.47,2.84,26.02,1.26,7.42,2.79,13.14,4.42,17.05-10.09,3.73-20.1,7.65-30.04,11.76-.23.09-.35.14-.58.23-.63-1.82-1.14-4.34-1.66-7.44-.45-2.69-.9-6.1-1.25-10.15-.34-4.04-.49-9.11-.42-15.19.04-3.98.24-10.37.59-19.14.4-9.85.77-19.74,1.09-29.57.36-11.23.62-22.58.65-33.78.04-10.52-.17-21.18-.65-31.7-.44-9.5-1.44-17.37-2.83-23.46-1.4-6.09-3.36-9.09-5.88-8.92-.93.06-1.8.87-2.61,2.42-.81,1.56-1.52,3.43-2.13,5.63-.61,2.2-1.1,4.56-1.44,7.06-.35,2.51-.67,4.75-.94,6.72-.25,1.97-.38,2.95-.63,4.92,0,.26,0,.39,0,.65-.08.14-.12.21-.2.35.08-.14.12-.21.2-.35-1.39,10.86-2.88,21.7-4.47,32.51-1.63,11.03-3.28,22.1-4.81,33.13-1.38,9.89-2.69,19.85-3.86,29.79-1.08,9.16-1.63,16.68-1.66,22.44-.04,7.55.38,14.15,1.25,19.77.87,5.62,1.97,10.33,3,13.97,1.19,4.24,2.51,7.91,4.15,10.67-10,4.18-19.92,8.54-29.76,13.07,3.04-13.12,5.65-26.42,7.85-39.6,2.25-13.49,3.89-27.33,5.39-40.97,1.75-15.86,2.5-31.98,2.59-47.87.09-15.6-.16-31.45-1.32-47.11-.75-10.12-1.55-20.44-2.99-30.35C10.24,17.38,5.28,5.79,3.56.57c10.45-.23,20.98.21,31.44,0,.27,0,2.97,1.94,5.04,3.46,1.09.8,3.19,2.7,4.97,4.56,1.78,1.86,3.65,4.61,5.61,8.2,1.96,3.59,3.73,8.58,5.32,14.92,1.59,6.34,2.81,14.27,3.6,23.77.97,11.54.94,23.25.58,34.72-.27,8.83-.56,16.91-.58,23.91-.02,7.01.07,13.38.27,19.08,1.26-8.52,2.58-17.03,3.94-25.53,1.35-8.45,2.63-16.44,3.85-23.95,1.22-7.51,2.2-14.38,2.94-20.65.74-6.26,1.15-11.5,1.2-15.75.1-7.08-.29-13.26-1.14-18.58-.86-5.31-1.79-9.81-2.81-13.42-1.25-4.42-4.66-11.48-6.35-14.74,10.46-.09,23.63.09,34.09,0Z"/>
      <path class="cls-1" d="m140.1.57c6.14-.01,13.17,2.33,19.19,6.05,2.53,1.56,7.86,6.15,11.78,13.95,4.36,8.69,7.18,18.31,9.01,27.45,2.18,10.94,2.82,22.22,2.77,33.65-.05,11.42-1.48,23.41-4.26,34.49-2.59,10.34-5.91,20.04-10.25,29.84-3.47,7.84-8.84,16.16-14.64,22.57-5.51,6.09-11.31,10.19-17.42,11.98-6.11,1.78-11.82,1.1-17.14-2.28-5.32-3.38-9.86-8.9-13.67-16.59-4.51-9.11-6.91-19.14-8.85-28.87-2.46-12.36-3.02-25.55-2.82-38.08.21-12.96,1.49-26.29,4.13-39.29,2.23-10.98,5.57-21.93,10.02-32.07,3.21-7.32,6.7-12.1,13.15-17.44,5.78-4.79,12.85-5.35,18.99-5.37Zm-21.19,158.93c1.58.13,3.16-.03,4.75-.45,3.84-1.03,7.78-3.62,11.83-7.68,4.05-4.06,7.99-9.19,11.84-15.33,3.84-6.14,7.43-13.22,10.81-21.11,3.42-7.99,6.46-16.63,8.53-25.03,2.27-9.19,4.27-18.57,5.01-28.09.69-8.88.63-16.91-.28-24.08-.91-7.17-2.68-13.11-5.31-17.87-2.63-4.75-5.93-7.9-9.9-9.39-1.59-.49-3.19-.71-4.79-.67-3.87.1-7.84,1.7-11.9,4.91-4.06,3.21-8.02,7.64-11.86,13.37-3.84,5.73-7.42,12.69-10.77,20.81-3.6,8.71-6.33,17.94-8.45,26.92-2.4,10.18-3.94,20.57-4.92,31.13-.79,8.55-.73,17.88.32,26.47.93,7.65,2.65,13.82,5.19,18.41,2.54,4.59,5.84,7.13,9.91,7.69Z"/>
      <path class="cls-1" d="m277.07.57c-.02,1.07-.49,2.62-.59,3.76-.08.86-.26,1.88-.35,2.88-.08,1-.27,1.88-.54,2.65-2.17,7.85-4,15.88-5.52,23.86-1.52,8.04-2.82,15.87-3.82,23.4-1,7.54-1.77,14.7-2.29,21.45-.52,6.76-.83,12.78-.92,18.04,0,.46-.01.7-.02,1.16-.68,7.94-2.13,15.43-4.35,22.49-2.22,7.07-5.31,13.35-9.27,18.89-3.96,5.54-8.81,10.19-14.56,13.99-5.75,3.8-12.48,6.44-20.18,7.93-.49.09-.73.14-1.22.24-3.11.6-5.99.45-8.66-.48-2.66-.93-4.95-2.48-6.84-4.65-1.89-2.17-3.38-4.81-4.45-7.92-1.07-3.1-1.57-6.51-1.49-10.18.06-2.84.38-5.39.97-7.66,1.91-8.27,3.08-17.06,3.66-25.47.67-9.6,1.12-19.38,1.33-28.99.26-11.64.31-23.47-.34-35.17-.52-9.33-1.21-16.94-2.01-22.74-.93-6.79-2.01-13.48-3.25-17.49,10.48-.2,20.97.18,31.45,0,.11,1.29.34,3.41.52,4.81.15,1.23.17,2.82.21,4.59.03,1.77.01,3.79-.02,6.04-.15,9.26-1.37,19.16-3.29,28.18-1.97,9.27-4.14,18.72-6.61,27.93-2.21,8.25-4.42,16.53-6.66,24.79-2.04,7.53-3.11,13.72-3.21,18.49-.14,6.41,1.5,11.24,4.92,14.43,3.42,3.19,8.44,4.21,15.05,3.2,4.72-.72,9.11-2.44,13.14-5.12,4.03-2.68,7.57-5.96,10.61-9.84,3.04-3.88,5.48-8.27,7.33-13.2,1.84-4.93,3.01-10.09,3.31-15.33.74-13.06,1.08-26.53-.6-39.55-1.18-9.1-2.52-18.46-5.03-27.38-2.34-8.35-5.48-16.22-8.7-22.03,10.49-.16,21.78.14,32.27,0Z"/>
      <path class="cls-1" d="m280.34.86c33.87-.18,67.74-.28,101.62-.29-2.4,7.79-5.06,15.31-7.84,22.5-2.44,6.29-5.25,12.88-8.5,19.66-3.25,6.79-6.78,12.56-10.57,17.32-.68.75-1.29,1.12-1.83,1.13-.81.01-1.45-.35-1.92-1.08-.47-.73-.57-1.61-.29-2.65,1.91-4.75,3.82-10.3,5.73-16.65,1.91-6.35,2.87-12.61,2.89-18.8.02-5-.44-8.73-1.37-11.15-.93-2.43-2.13-4.15-3.59-5.18-.8-.59-1.64-.69-2.51-.33-.87.37-1.44,1-1.71,1.89-1.22,3.1-2.62,7.13-4.18,12.09-1.57,4.96-3.12,10.63-4.64,17-1.52,6.38-2.81,13.32-3.88,20.81-1.07,7.5-1.62,15.41-1.69,23.7-.09,10.38.11,20.85,1.3,31.16.94,8.16,2.01,14.88,3.24,19.95,1.41,5.82,3.07,10.44,4.83,13.77-10.82.5-21.63,1.21-32.43,2.12-.12-1.78-.09-3.5-.15-4.92-.05-1.27-.21-2.71-.26-4.13-.05-1.41-.08-2.5-.07-3.25.05-4.78.52-10.16,1.4-16.12.88-5.95,2-12.18,3.36-18.66,1.36-6.48,2.78-13.07,4.26-19.75,1.49-6.68,2.9-13.02,4.23-19,1.34-5.98,2.43-11.51,3.28-16.57.85-5.06,1.29-9.3,1.32-12.72.02-2.08-.09-4.75-.33-8.01-.24-3.26-.78-6.41-1.63-9.45-.84-3.03-2.06-5.67-3.64-7.89-1.58-2.22-3.71-3.33-6.39-3.32-1.6,0-3.35.43-5.23,1.26-1.88.83-3.67,2.16-5.36,3.97-1.69,1.82-3.13,4.09-4.3,6.81-1.17,2.72-1.78,5.9-1.83,9.51-.05,3.77.83,8.57,2.64,14.38,1.81,5.81,3.83,11.38,6.06,16.69.39,1.04.31,1.98-.23,2.82-.55.84-1.23,1.28-2.04,1.31-.54.02-1.14-.33-1.81-1.06-2.78-3.8-5.73-7.75-8.83-11.87-3.1-4.11-5.93-8.53-8.48-13.24-2.55-4.71-4.65-9.87-6.3-15.48-1.65-5.61-2.43-11.72-2.32-18.29Z"/>
      <path class="cls-1" d="m414.98.57c-3.23,7.42-6.14,16.25-8.25,23.9-2.24,8.11-4.38,16.89-5.64,25.26-1.56,10.33-2.31,20.56-2.43,31.01-.11,10.2.35,20.71,1.63,30.94,1.03,8.25,2.22,15,3.45,20.18,1.4,5.9,2.98,10.62,4.78,14.06-10.75-.35-21.51-.5-32.26-.45-.14-1.76-.27-3.39-.41-4.85-.13-1.31-.24-2.68-.3-4.08-.07-1.39-.1-2.46-.1-3.2,0-4.56.42-9.74,1.24-15.55.82-5.81,1.88-11.92,3.17-18.31,1.29-6.39,2.68-12.83,4.17-19.29,1.49-6.46,2.87-12.64,4.14-18.51,1.27-5.87,2.31-11.31,3.11-16.31.8-5,1.19-9.19,1.18-12.57-.01-5.15-.49-9.68-1.44-13.57-.94-3.9-1.93-7.3-3.03-10.04-1.28-3.21-2.89-6.25-4.63-8.6,10.42.15,21.19-.17,31.62,0Z"/>
      <path class="cls-1" d="m477.02,97.49c6.05-2.28,12.3-4.09,18.75-5.4-.47,8.06-2,16.76-4.45,24.43-2.34,7.33-5.19,13.62-8.64,18.75-3.45,5.13-7.37,9-11.76,11.65-4.39,2.65-9.12,3.73-14.17,3.28-5.6-.5-10.92-2.87-15.95-7.08-5.03-4.21-9.39-9.75-13.15-16.47-3.95-7.08-6.99-15.77-8.85-23.56-2.21-9.27-3.27-19.18-3.33-28.46-.06-9.29.86-19.23,2.96-28.54,1.71-7.62,4.58-16.16,8.4-23.09,3.58-6.51,7.77-11.76,12.62-15.61,4.84-3.84,9.91-6.83,15.39-6.81,4.28.02,8.88,1.8,12.78,4.17,3.91,2.38,7.08,6.23,10.36,10.63,3.28,4.4,6.21,9.6,8.78,15.58,2.58,5.99,4.67,12.65,6.27,19.98-.53.44-1.63,1.16-3.29,2.15-1.66,1-3.39,2.06-5.19,3.2-1.8,1.14-3.5,2.2-5.09,3.19-1.6.99-2.73,1.69-3.4,2.12.33-4.85.69-9.82,1.09-14.91.39-5.09.49-9.85.29-14.28-.2-4.42-.86-8.26-1.98-11.47-1.12-3.22-2.98-5.34-5.51-6.25-3.58-1.29-7.44-.93-11.43.97-3.99,1.9-7.87,5-11.65,9.28-3.77,4.28-7.28,9.62-10.51,16.03-3.23,6.41-5.9,13.51-8,21.32-2.1,7.81-3.36,15.4-3.78,22.79-.42,7.39-.1,14.07.97,20.03,1.07,5.97,2.84,11.04,5.33,15.24,2.49,4.2,5.58,7.01,9.27,8.42,1.5.54,2.94.85,4.3.94,5.73.38,11.55-2.38,17.45-8.19,6.9-6.79,11.03-15.39,15.11-24.04Z"/>
      <path class="cls-1" d="m518.21,3.05c3.59,4.74,10.6,35.76,5.28,51.32-.26.76-.79,1.39-1.5,1.77-3.85,2.03-8.14,1.76-11.8-.52-.1-.06-.14-.17-.12-.28,2.55-11.2-7.55-35.89-15.05-54.26-.13-.32.08-.67.42-.7,7.05-.75,14.82-.6,22.52,2.5.09.04.18.09.24.17Z"/>
      <path class="cls-1" d="m633.02.57c1.09,1.13,4.94,2.73,6.29,8.92.31,1.41.07,3.59-.68,6.25-.75,2.67-2.42,5.99-5,9.91-4.14,6.23-8.46,11.13-12.98,14.76-4.52,3.63-8.91,6.76-13.18,9.4-4.27,2.64-8.38,5.25-12.32,7.83-3.94,2.58-7.47,5.94-10.58,10.06-3.11,4.12-5.73,9.26-7.87,15.41-2.61,7.5-3.78,16.37-4.28,24.13-.68,10.5-.43,21.76,3.1,31.85,2.92,8.35,7.77,13.33,14.33,14.81,3.34.75,6.19.21,8.55-1.67,2.35-1.88,4.28-4.71,5.8-8.48,1.51-3.77,2.58-8.32,3.19-13.64.62-5.32.86-10.91.74-16.74,4.72.74,7.07,1.12,11.78,1.9.13,8.7.73,17.56,1.73,26.18.83,7.16,2.12,14.68,3.93,22.55,1.81,7.87,4.42,14.59,7.82,20.18-29.19-9.09-58.64-16.74-88.57-23.01.04-4.35.35-9.37,1.1-14.83.64-4.68,1.8-10.46,3.26-17.21,1.47-6.75,3.63-14.38,6.55-22.79,2.61-7.49,5.78-14.49,9.38-20.96,3.6-6.47,7.41-12.5,11.43-18.1,4.01-5.59,7.97-10.73,11.87-15.39,3.9-4.66,7.4-8.95,10.52-12.85,3.11-3.89,5.61-7.4,7.47-10.48,1.86-3.08,2.78-5.7,2.73-7.83-.04-1.77-.43-3.12-1.19-4.03-.75-.91-2.9-1.2-6.32-1.01-2.24.13-5.19.62-8.77,1.54-3.58.92-7.25,2.6-11,5.01-3.75,2.41-7.28,5.77-10.59,10.05-3.31,4.28-5.83,9.85-7.55,16.7-2.48.12-3.72.18-6.21.31-.05-2.14-.02-4.45-.14-6.69-.11-1.93-.29-4.14-.34-6.45-.05-2.31-.1-4.46-.14-6.44-.08-3.63-.62-7-1.62-10.08-1-3.08-2.17-5.8-3.38-8.11-3.42-6.54-6.25-8.63-8.03-10.94,30.09.23,59.05-.36,89.14,0Z"/>
      <path class="cls-1" d="m678.87.57c-2.92,10.2-7.23,23.71-9.38,34.11-2.25,10.86-3.86,21.86-5.13,32.88-1.54,13.43-1.93,26.95-1.79,40.35.14,13.54.68,27.39,2.17,40.92,1.01,9.14,2.08,18.37,3.69,27.44,1.45,8.18,3.05,14.87,4.82,19.99-10.25-3.67-20.58-7.14-30.96-10.42-.18-2.27-.34-4.37-.51-6.26-.16-1.71-.3-3.46-.4-5.25-.1-1.78-.16-3.14-.18-4.07-.11-5.76.16-12.19.81-19.34.65-7.15,1.53-14.64,2.63-22.49,1.1-7.86,2.31-15.79,3.61-23.81,1.3-8.02,2.52-15.74,3.64-23.14,1.12-7.4,2.02-14.31,2.71-20.7.68-6.39.98-11.8.91-16.2-.12-6.68-.69-12.6-1.71-17.7-1.02-5.1-2.07-9.52-3.23-13.11-1.35-4.18-5.03-10.16-6.82-13.2,10.4.35,24.71-.39,35.11,0Z"/>
      <path class="cls-1" d="m739.34,93.28c2.88.55,5.53,1.52,7.95,2.9s4.51,3.46,6.27,6.23c1.76,2.77,3.13,6.3,4.11,10.55.98,4.26,1.46,9.52,1.47,15.76,0,1.85-.23,4.91-.68,9.16-.45,4.25-.93,9.06-1.44,14.41-.51,5.36-.99,11.05-1.43,17.08-.44,6.03-.66,11.78-.65,17.28,0,5.27.2,10.61.59,16.04.39,5.44.74,10.34,1.16,14.61.47,4.79,1.08,9.58,1.72,14.26-9.53-4.48-19.14-8.78-28.83-12.92.18-9.71.39-19.41,2.21-28.97,1.57-8.22,3.31-15.84,5.27-22.79,1.96-6.95,3.74-13.77,5.33-20.44,1.59-6.66,2.38-13.86,2.35-21.5-.02-6.51-1.11-11.32-3.27-14.37-2.16-3.05-4.36-4.79-6.58-5.27-1.57-.34-2.81-.16-3.72.52-2.47,1.88-4.83,5.38-7.07,10.45-2.24,5.08-4.18,11.02-5.81,17.82-1.63,6.8-2.93,13.89-3.9,21.3-.97,7.41-1.42,14.46-1.35,21.21.02,1.9.14,4.15.36,6.75.22,2.6.45,5.35.76,8.17.4,3.72.64,6.84.67,9.27.02,2.44-.04,4.49-.13,6.11-.12,2.05-.29,3.68-.53,4.84-10.1-4.09-20.28-7.99-30.52-11.7-.17-2.45-.32-4.8-.49-7.03-.14-1.83-.28-3.72-.37-5.64-.09-1.92-.15-3.37-.16-4.37-.09-6.18.2-13.08.87-20.74.67-7.66,1.57-15.68,2.69-24.1,1.13-8.51,2.36-17.03,3.67-25.52,1.28-8.26,2.52-16.54,3.71-24.82,1.15-7.94,2.08-15.37,2.78-22.24.71-6.87,1.03-12.69.98-17.42-.09-7.19-.63-13.56-1.63-19.05-1-5.49-2.03-10.24-3.17-14.11-1.33-4.5-5.31-11.17-7.09-14.44,10.4.39,25.62-.43,36.01,0-3.19,10.96-8.08,26.21-10.15,37.32-2.16,11.57-4.02,23.56-5.28,35.23-1.54,14.24-2.05,28.86-1.98,43.27.01,2.68.06,5.3.09,7.79.03,2.49.12,4.9.28,7.22,1.83-8.47,4.95-17.53,8.95-25.2,3.74-7.18,7.01-13.13,9.87-17.57,1.68-2.71,3.6-5.62,5.74-8.75,2.14-3.13,4.16-6.87,6.04-11.22,1.88-4.35,3.47-9.35,4.76-14.98,1.29-5.63,1.93-12.05,1.9-19.2-.02-5.8-.24-10.62-.65-14.43-.41-3.81-.92-6.96-1.44-9.41-.56-2.66-2.87-8.5-3.68-10.07,7.99.17,12.3-.17,20.28,0,.53,1.17,2.34,6.79,2.74,8.64.4,1.86.73,4.01,1,6.45.27,2.44.4,5.4.4,8.87,0,8.8-1.29,16.81-3.86,23.89-2.57,7.08-5.65,13.41-9.24,18.99-3.6,5.57-7.28,10.46-11.06,14.67-3.78,4.21-6.83,8.01-9.17,11.47-1.55,2.31-3.56,5.59-6.01,9.79-2.45,4.2-4.79,9.06-7.02,14.56-2.23,5.5-4.13,11.63-5.68,18.42-1.56,6.79-2.29,13.99-2.21,21.7.02,1.88.03,2.81.05,4.69.72,6.88,1.44,13.05,2.14,18.5.7,5.46,1.4,10.1,2.08,13.91-.14-.89-.24-1.66-.31-2.31-.07-.65-.11-1.29-.12-1.92-.29-2.82-.57-5.59-.86-8.3-.29-2.71-.44-5.21-.47-7.52-.06-5.65.26-11.74.97-18.32.71-6.57,1.72-13.04,3.02-19.42,1.3-6.38,2.91-12.37,4.82-17.97,1.91-5.61,4.02-10.32,6.35-14.14.26-.59.87-1.59,1.84-3.01.97-1.42,2.14-2.86,3.5-4.33,1.36-1.47,2.93-2.69,4.69-3.67,1.76-.98,3.62-1.29,5.59-.91Z"/>
    </g>
  </g>
</svg>