<?xml version="1.0" encoding="UTF-8"?>
<svg id="Calque_2" data-name="Calque 2" xmlns="http://www.w3.org/2000/svg" viewBox="0 0 872.74 274.15">
  <defs>
    <style>
      .cls-1 {
        fill: #ff4d00;
      }
    </style>
  </defs>
  <g id="qsdqsdqsd">
    <g>
      <path class="cls-1" d="m109.64,8.35c-3.83,12.02-8.11,27.37-10.88,39.55-2.94,12.94-5.2,26.42-6.98,39.58-2.17,16.07-3.35,32.47-3.65,48.66-.29,15.81-.3,32.07,1,47.94.81,9.94,1.6,20.05,3.26,29.87,1.45,8.52,3.2,15.08,5.07,19.57-11.58,4.28-23.08,8.78-34.48,13.49-.27.11-.4.16-.67.27-.72-2.09-1.31-4.98-1.9-8.54-.51-3.09-1.04-7-1.43-11.65-.39-4.64-.56-10.45-.48-17.44.05-4.57.27-11.9.67-21.97.45-11.31.89-22.66,1.25-33.94.42-12.89.71-25.92.75-38.77.04-12.08-.19-24.31-.75-36.39-.5-10.91-1.65-19.94-3.25-26.93-1.6-6.99-3.86-10.44-6.75-10.24-1.07.07-2.07,1-2.99,2.78-.93,1.79-1.74,3.94-2.45,6.46-.71,2.52-1.26,5.23-1.66,8.1-.4,2.88-.76,5.45-1.08,7.71-.29,2.26-.44,3.39-.72,5.65,0,.3,0,.45,0,.74-.09.16-.14.24-.23.4.09-.16.14-.24.23-.4-1.59,12.46-3.3,24.9-5.13,37.32-1.87,12.66-3.76,25.37-5.52,38.03-1.58,11.36-3.09,22.79-4.43,34.2-1.23,10.52-1.87,19.14-1.9,25.76-.04,8.66.44,16.24,1.44,22.69,1,6.45,2.26,11.86,3.44,16.03,1.37,4.86,2.88,9.08,4.76,12.24-11.48,4.8-22.87,9.8-34.17,15,3.49-15.06,6.49-30.33,9.01-45.46,2.58-15.48,4.46-31.37,6.19-47.02,2.01-18.2,2.86-36.71,2.97-54.95.1-17.91-.18-36.1-1.51-54.08-.86-11.62-1.77-23.46-3.43-34.84-1.47-10.15-7.17-23.46-9.15-29.45,12-.27,24.09.24,36.09,0,.3,0,3.41,2.23,5.78,3.98,1.26.92,3.66,3.1,5.7,5.23,2.04,2.14,4.19,5.29,6.44,9.42,2.25,4.13,4.28,9.85,6.11,17.12,1.82,7.28,3.22,16.39,4.14,27.28,1.11,13.25,1.08,26.69.67,39.85-.31,10.14-.64,19.4-.66,27.44-.02,8.05.08,15.35.31,21.9,1.45-9.78,2.96-19.55,4.52-29.3,1.55-9.7,3.02-18.87,4.42-27.49,1.4-8.62,2.52-16.51,3.38-23.71.85-7.19,1.32-13.21,1.38-18.08.11-8.13-.33-15.22-1.31-21.32-.98-6.1-2.05-11.26-3.23-15.41-1.44-5.07-5.35-13.18-7.29-16.92,12.01-.11,27.12.1,39.13,0Z"/>
      <path class="cls-1" d="m160.82,8.35c7.04-.01,15.12,2.67,22.02,6.94,2.9,1.79,9.02,7.06,13.52,16.02,5.01,9.98,8.24,21.02,10.34,31.51,2.51,12.56,3.24,25.51,3.18,38.62-.06,13.11-1.7,26.88-4.89,39.59-2.97,11.87-6.79,23-11.76,34.25-3.98,9-10.15,18.55-16.8,25.91-6.32,6.99-12.98,11.7-19.99,13.75-7.01,2.05-13.57,1.26-19.67-2.61-6.11-3.88-11.32-10.22-15.69-19.04-5.18-10.46-7.93-21.97-10.15-33.14-2.83-14.19-3.47-29.33-3.23-43.72.25-14.88,1.71-30.18,4.74-45.1,2.56-12.6,6.39-25.17,11.5-36.82,3.69-8.4,7.69-13.89,15.1-20.02,6.63-5.49,14.75-6.15,21.8-6.16Zm-24.32,182.43c1.81.15,3.63-.03,5.45-.52,4.41-1.18,8.93-4.15,13.58-8.82,4.64-4.66,9.18-10.55,13.59-17.6,4.41-7.05,8.53-15.18,12.4-24.23,3.93-9.17,7.41-19.09,9.79-28.73,2.6-10.55,4.9-21.31,5.75-32.24.79-10.19.73-19.42-.32-27.64-1.05-8.23-3.08-15.05-6.1-20.51-3.02-5.46-6.81-9.07-11.37-10.77-1.82-.56-3.66-.82-5.49-.77-4.44.11-9,1.96-13.66,5.64-4.67,3.68-9.21,8.77-13.61,15.35-4.41,6.58-8.51,14.57-12.37,23.88-4.14,10-7.27,20.59-9.7,30.9-2.76,11.68-4.52,23.62-5.64,35.74-.91,9.82-.83,20.52.37,30.38,1.07,8.78,3.04,15.86,5.96,21.13,2.92,5.27,6.71,8.18,11.38,8.82Z"/>
      <path class="cls-1" d="m318.04,8.35c-.02,1.23-.56,3.01-.67,4.31-.09.99-.3,2.16-.4,3.3-.1,1.15-.3,2.16-.62,3.04-2.49,9.01-4.6,18.23-6.33,27.39-1.75,9.23-3.23,18.21-4.38,26.86-1.15,8.65-2.03,16.87-2.63,24.63-.6,7.76-.95,14.67-1.06,20.71,0,.53-.01.8-.02,1.33-.78,9.12-2.44,17.71-4.99,25.82-2.55,8.12-6.1,15.33-10.64,21.69-4.54,6.36-10.12,11.7-16.71,16.05-6.6,4.36-14.32,7.39-23.16,9.1-.56.11-.84.16-1.4.27-3.57.69-6.88.52-9.94-.55-3.06-1.07-5.68-2.84-7.85-5.33-2.17-2.49-3.88-5.52-5.11-9.09-1.23-3.56-1.8-7.47-1.7-11.69.07-3.26.44-6.19,1.11-8.79,2.19-9.49,3.53-19.58,4.21-29.24.77-11.02,1.28-22.25,1.53-33.27.3-13.37.35-26.94-.39-40.37-.59-10.71-1.39-19.44-2.31-26.1-1.07-7.8-2.3-15.47-3.73-20.07,12.03-.23,24.07.2,36.1,0,.12,1.48.4,3.92.59,5.52.17,1.41.2,3.24.24,5.27.04,2.03.01,4.36-.03,6.93-.17,10.63-1.58,21.99-3.78,32.35-2.26,10.64-4.75,21.49-7.59,32.07-2.54,9.47-5.07,18.98-7.64,28.46-2.34,8.64-3.57,15.75-3.68,21.22-.16,7.36,1.72,12.9,5.65,16.56,3.93,3.66,9.68,4.83,17.28,3.67,5.42-.83,10.45-2.8,15.08-5.88,4.62-3.08,8.69-6.84,12.18-11.3,3.49-4.45,6.29-9.49,8.41-15.15,2.11-5.65,3.46-11.58,3.8-17.6.85-14.99,1.24-30.46-.69-45.39-1.35-10.45-2.9-21.18-5.77-31.43-2.69-9.58-6.29-18.62-9.99-25.29,12.04-.19,25.01.16,37.04,0Z"/>
      <path class="cls-1" d="m321.8,8.68c38.88-.21,77.76-.32,116.64-.33-2.76,8.95-5.8,17.57-9,25.83-2.8,7.22-6.03,14.78-9.76,22.57-3.73,7.79-7.78,14.42-12.14,19.89-.78.86-1.48,1.29-2.1,1.3-.93.01-1.66-.4-2.2-1.24-.54-.84-.65-1.85-.33-3.04,2.19-5.45,4.39-11.82,6.58-19.11,2.19-7.29,3.29-14.48,3.32-21.58.02-5.75-.5-10.02-1.57-12.8-1.06-2.79-2.44-4.77-4.12-5.95-.92-.67-1.88-.8-2.88-.37-1,.43-1.66,1.15-1.97,2.16-1.4,3.56-3,8.19-4.8,13.88-1.8,5.69-3.58,12.2-5.32,19.52-1.75,7.32-3.23,15.29-4.45,23.89-1.22,8.61-1.86,17.69-1.94,27.2-.1,11.91.13,23.94,1.49,35.77,1.08,9.37,2.31,17.08,3.71,22.9,1.61,6.68,3.53,11.99,5.55,15.8-12.42.58-24.83,1.39-37.22,2.43-.14-2.05-.11-4.02-.17-5.65-.06-1.46-.24-3.11-.3-4.74-.06-1.62-.09-2.86-.08-3.73.06-5.49.6-11.66,1.61-18.5,1.01-6.83,2.29-13.98,3.85-21.42,1.56-7.44,3.19-15,4.89-22.68,1.7-7.67,3.32-14.94,4.86-21.81,1.53-6.87,2.79-13.21,3.76-19.02.98-5.81,1.48-10.68,1.51-14.6.02-2.38-.11-5.45-.38-9.2-.28-3.74-.9-7.36-1.87-10.85-.97-3.48-2.36-6.51-4.18-9.06-1.82-2.55-4.26-3.82-7.33-3.81-1.84,0-3.84.49-6,1.45-2.16.96-4.21,2.48-6.15,4.56-1.94,2.08-3.59,4.69-4.93,7.82-1.34,3.13-2.05,6.77-2.1,10.92-.06,4.32.95,9.83,3.03,16.5,2.08,6.67,4.39,13.06,6.95,19.16.45,1.19.36,2.27-.27,3.23-.63.97-1.41,1.47-2.34,1.5-.62.02-1.31-.38-2.07-1.21-3.2-4.36-6.58-8.9-10.14-13.63-3.56-4.72-6.81-9.79-9.73-15.19-2.93-5.4-5.34-11.33-7.24-17.77-1.9-6.44-2.79-13.45-2.67-20.99Z"/>
      <path class="cls-1" d="m476.34,8.35c-3.71,8.51-7.04,18.66-9.47,27.44-2.58,9.31-5.03,19.39-6.48,29-1.79,11.86-2.66,23.6-2.79,35.59-.13,11.71.41,23.77,1.87,35.52,1.18,9.47,2.55,17.22,3.96,23.16,1.61,6.78,3.42,12.19,5.49,16.14-12.34-.4-24.69-.57-37.03-.52-.16-2.02-.31-3.89-.47-5.57-.15-1.51-.27-3.08-.35-4.68-.08-1.6-.12-2.82-.12-3.67,0-5.23.48-11.18,1.42-17.85.94-6.67,2.16-13.68,3.64-21.02,1.48-7.34,3.08-14.72,4.78-22.15,1.71-7.42,3.29-14.5,4.75-21.25,1.46-6.74,2.65-12.99,3.57-18.72.92-5.73,1.37-10.54,1.36-14.43-.01-5.91-.56-11.11-1.65-15.58-1.08-4.47-2.22-8.38-3.48-11.53-1.47-3.68-3.32-7.17-5.31-9.87,11.97.17,24.33-.2,36.29,0Z"/>
      <path class="cls-1" d="m547.56,119.6c6.94-2.62,14.12-4.7,21.52-6.2-.54,9.25-2.3,19.24-5.11,28.04-2.68,8.42-5.96,15.64-9.92,21.52-3.96,5.88-8.46,10.33-13.49,13.37-5.04,3.04-10.46,4.28-16.26,3.76-6.43-.57-12.54-3.29-18.31-8.13-5.77-4.84-10.78-11.19-15.09-18.9-4.54-8.13-8.03-18.1-10.16-27.04-2.54-10.64-3.76-22.01-3.82-32.67-.07-10.67.99-22.08,3.4-32.76,1.97-8.74,5.26-18.55,9.64-26.51,4.11-7.47,8.92-13.5,14.48-17.92,5.56-4.41,11.38-7.84,17.67-7.81,4.91.02,10.19,2.06,14.68,4.79,4.49,2.73,8.12,7.15,11.89,12.2,3.76,5.05,7.13,11.02,10.08,17.89,2.96,6.87,5.36,14.52,7.2,22.93-.61.5-1.87,1.33-3.77,2.47-1.91,1.14-3.9,2.37-5.96,3.67-2.06,1.3-4.01,2.53-5.85,3.66-1.83,1.13-3.14,1.94-3.9,2.43.38-5.57.79-11.28,1.25-17.12.45-5.84.56-11.31.33-16.39-.23-5.08-.99-9.48-2.28-13.17-1.29-3.69-3.42-6.13-6.33-7.17-4.11-1.48-8.54-1.07-13.12,1.12-4.58,2.18-9.04,5.74-13.37,10.65-4.33,4.91-8.35,11.05-12.06,18.4-3.71,7.35-6.77,15.51-9.18,24.47-2.41,8.96-3.85,17.68-4.34,26.16-.48,8.49-.11,16.15,1.11,22.99,1.22,6.85,3.26,12.68,6.11,17.5,2.86,4.82,6.41,8.04,10.64,9.67,1.73.62,3.37.98,4.94,1.08,6.57.43,13.26-2.74,20.04-9.4,7.92-7.79,12.66-17.67,17.35-27.59Z"/>
      <path class="cls-1" d="m614,0c-4.53,21.67-10.54,44.43-20.35,64.4-5.16.47-7.74.71-12.91,1.19,6.14-20.44,10.01-41.95,12.4-63.14,8.35-.96,12.52-1.45,20.86-2.45Z"/>
      <path class="cls-1" d="m726.63,8.35c1.25,1.3,5.68,3.13,7.22,10.23.35,1.62.08,4.12-.78,7.18-.86,3.06-2.77,6.88-5.74,11.37-4.75,7.16-9.72,12.78-14.9,16.95-5.18,4.17-10.23,7.75-15.13,10.79-4.9,3.03-9.62,6.03-14.14,8.99-4.52,2.96-8.57,6.82-12.14,11.55-3.57,4.73-6.58,10.63-9.03,17.69-2.99,8.61-4.33,18.79-4.91,27.7-.78,12.05-.49,24.98,3.56,36.56,3.36,9.59,8.92,15.31,16.45,17,3.84.86,7.11.24,9.81-1.92,2.7-2.16,4.92-5.4,6.65-9.73,1.74-4.33,2.96-9.55,3.67-15.66.71-6.1.99-12.52.85-19.21,5.42.85,8.12,1.28,13.53,2.18.15,9.99.84,20.16,1.99,30.05.95,8.21,2.44,16.85,4.51,25.89,2.08,9.04,5.07,16.75,8.98,23.17-33.51-10.43-67.32-19.21-101.66-26.41.05-5,.4-10.75,1.26-17.03.74-5.37,2.06-12,3.75-19.76,1.68-7.75,4.16-16.5,7.52-26.15,2.99-8.59,6.63-16.63,10.77-24.06,4.13-7.43,8.51-14.35,13.12-20.78,4.61-6.42,9.15-12.32,13.63-17.67,4.47-5.35,8.5-10.28,12.08-14.75,3.57-4.47,6.44-8.49,8.58-12.03,2.14-3.53,3.19-6.55,3.14-8.99-.04-2.03-.5-3.58-1.36-4.63-.86-1.04-3.33-1.38-7.26-1.16-2.57.15-5.96.71-10.07,1.76-4.11,1.05-8.32,2.98-12.62,5.75-4.31,2.76-8.36,6.62-12.16,11.54-3.8,4.91-6.69,11.3-8.66,19.17-2.85.14-4.28.21-7.13.35-.05-2.46-.02-5.11-.17-7.68-.12-2.21-.33-4.75-.39-7.41-.06-2.65-.11-5.12-.16-7.39-.09-4.17-.71-8.03-1.86-11.57-1.15-3.53-2.49-6.66-3.88-9.31-3.93-7.51-7.17-9.91-9.22-12.56,34.54.26,67.78-.41,102.33,0Z"/>
      <path class="cls-1" d="m779.26,8.35c-3.35,11.71-8.3,27.22-10.77,39.15-2.58,12.47-4.43,25.09-5.88,37.74-1.77,15.42-2.22,30.94-2.06,46.32.16,15.54.78,31.44,2.49,46.97,1.16,10.49,2.39,21.08,4.24,31.49,1.67,9.39,3.5,17.07,5.53,22.94-11.77-4.21-23.62-8.19-35.54-11.96-.2-2.61-.39-5.02-.59-7.19-.18-1.96-.34-3.97-.45-6.02-.12-2.05-.18-3.6-.2-4.67-.13-6.61.18-13.99.93-22.2.75-8.2,1.76-16.8,3.02-25.82,1.27-9.02,2.65-18.12,4.14-27.33,1.5-9.2,2.89-18.06,4.18-26.56,1.29-8.49,2.32-16.43,3.11-23.76.78-7.33,1.13-13.54,1.04-18.59-.14-7.67-.79-14.46-1.96-20.32-1.17-5.85-2.38-10.93-3.71-15.05-1.55-4.8-5.77-11.66-7.82-15.15,11.94.4,28.36-.45,40.3,0Z"/>
      <path class="cls-1" d="m848.67,114.77c3.3.64,6.35,1.74,9.12,3.33s5.18,3.97,7.2,7.15c2.02,3.18,3.6,7.23,4.72,12.11,1.12,4.89,1.68,10.93,1.68,18.09,0,2.12-.26,5.64-.78,10.51-.52,4.88-1.07,10.4-1.66,16.55-.59,6.15-1.13,12.69-1.64,19.61-.51,6.92-.76,13.53-.75,19.84,0,6.05.24,12.18.68,18.41.45,6.24.85,11.87,1.33,16.77.54,5.5,1.24,10.99,1.97,16.37-10.94-5.14-21.98-10.08-33.09-14.83.21-11.15.45-22.28,2.54-33.25,1.8-9.44,3.8-18.19,6.05-26.16,2.25-7.98,4.29-15.81,6.12-23.46,1.82-7.65,2.73-15.91,2.7-24.67-.03-7.47-1.27-12.99-3.76-16.5-2.48-3.5-5-5.5-7.55-6.05-1.8-.39-3.23-.18-4.27.59-2.83,2.15-5.54,6.17-8.12,12-2.58,5.83-4.8,12.65-6.67,20.45-1.87,7.81-3.36,15.95-4.47,24.45-1.11,8.51-1.62,16.6-1.55,24.35.02,2.18.16,4.76.41,7.75.25,2.99.52,6.14.87,9.38.46,4.28.74,7.85.77,10.64.03,2.8-.04,5.15-.15,7.02-.14,2.35-.33,4.22-.61,5.55-11.6-4.69-23.28-9.17-35.04-13.43-.19-2.81-.36-5.51-.56-8.07-.16-2.1-.32-4.27-.43-6.47-.11-2.2-.17-3.87-.19-5.02-.1-7.09.23-15.01,1-23.81.77-8.79,1.81-18,3.09-27.66,1.3-9.77,2.71-19.55,4.22-29.29,1.47-9.48,2.89-18.99,4.26-28.49,1.32-9.11,2.38-17.64,3.19-25.53.81-7.88,1.19-14.56,1.12-19.99-.1-8.26-.72-15.56-1.87-21.87-1.14-6.3-2.32-11.76-3.64-16.2-1.53-5.17-6.1-12.82-8.14-16.57,11.93.44,29.41-.49,41.34,0-3.66,12.59-9.27,30.09-11.65,42.84-2.48,13.28-4.62,27.05-6.06,40.44-1.77,16.35-2.35,33.12-2.28,49.67.01,3.08.07,6.08.1,8.94.03,2.86.14,5.62.32,8.29,2.1-9.73,5.68-20.12,10.27-28.93,4.29-8.24,8.05-15.07,11.32-20.17,1.93-3.11,4.13-6.45,6.59-10.04,2.46-3.59,4.77-7.88,6.93-12.88,2.16-5,3.98-10.73,5.47-17.2,1.48-6.46,2.21-13.83,2.18-22.03-.03-6.66-.28-12.19-.75-16.57-.47-4.37-1.05-7.99-1.65-10.81-.64-3.06-3.3-9.76-4.22-11.56,9.17.19,14.11-.2,23.28,0,.61,1.34,2.69,7.79,3.15,9.92.46,2.14.84,4.6,1.15,7.4.31,2.8.46,6.2.46,10.18,0,10.1-1.48,19.3-4.43,27.42-2.95,8.13-6.48,15.4-10.61,21.8-4.13,6.4-8.36,12-12.7,16.83-4.34,4.84-7.84,9.2-10.52,13.17-1.78,2.65-4.09,6.42-6.9,11.24-2.81,4.83-5.5,10.4-8.06,16.71-2.56,6.31-4.74,13.35-6.52,21.14-1.79,7.79-2.63,16.06-2.53,24.91.02,2.15.04,3.23.06,5.38.83,7.89,1.65,14.98,2.46,21.23.81,6.26,1.6,11.59,2.39,15.97-.16-1.02-.28-1.91-.36-2.66-.08-.75-.13-1.49-.13-2.21-.33-3.24-.66-6.42-.99-9.53-.33-3.11-.51-5.98-.54-8.63-.07-6.49.3-13.48,1.12-21.03.82-7.54,1.97-14.97,3.47-22.3,1.5-7.32,3.34-14.2,5.53-20.63,2.19-6.43,4.62-11.85,7.28-16.23.29-.68,1-1.83,2.11-3.46,1.11-1.63,2.45-3.28,4.02-4.97,1.56-1.68,3.36-3.09,5.38-4.21,2.02-1.12,4.16-1.48,6.41-1.05Z"/>
    </g>
  </g>
</svg>