<?xml version="1.0" encoding="UTF-8"?><svg id="Logo_Boule_Noutic" xmlns="http://www.w3.org/2000/svg" viewBox="0 0 1000 1000"><path d="m548.07,408.81h12.12c.47,0,.84-.38.84-.84v-36.59c0-.47.38-.84.84-.84h16.13c.46,0,.84-.38.84-.84v-10.86c0-.47-.38-.84-.84-.84h-16.13c-.47,0-.84-.38-.84-.84v-22.78c0-.47.38-.84.84-.84h21.03c.46,0,.84-.38.84-.84v-10.86c0-.47-.38-.84-.84-.84h-34.83c-.46,0-.84.38-.84.84v86.15c0,.47.38.84.84.84Z"/><path d="m628.04,407.97v-10.86c0-.47-.38-.84-.84-.84h-22.15c-.47,0-.84-.38-.84-.84v-25.29c0-.47.38-.84.84-.84h17.26c.47,0,.84-.38.84-.84v-10.86c0-.47-.38-.84-.84-.84h-17.26c-.47,0-.84-.38-.84-.84v-21.53c0-.47.38-.84.84-.84h22.15c.47,0,.84-.38.84-.84v-10.86c0-.47-.38-.84-.84-.84h-35.96c-.46,0-.84.38-.84.84v86.15c0,.47.38.84.84.84h35.96c.47,0,.84-.38.84-.84Z"/><path d="m653.64,410.07c13.55,0,20.83-8.03,20.83-22.34,0-10.92-3.76-18.07-15.31-28.23-9.03-7.9-12.17-12.42-12.17-18.82,0-6.02,2.64-8.41,7.03-8.41s6.9,2.38,6.9,8.66v3.68c0,.47.38.84.84.84h12.21v-3.64c0-14.06-6.65-22.09-20.08-22.09s-20.58,8.03-20.58,21.84c0,10.04,3.89,17.32,15.43,27.48,9.03,7.9,12.05,12.42,12.05,19.7,0,6.52-2.89,8.79-7.28,8.79s-7.15-2.26-7.15-8.53v-5.18c0-.47-.38-.84-.84-.84h-11.37c-.46,0-.84.38-.84.84v4.18c0,14.05,6.78,22.08,20.33,22.08Z"/><path d="m706.71,407.97v-73.61c0-.47.38-.84.84-.84h12.74c.47,0,.84-.38.84-.84v-10.86c0-.47-.38-.84-.84-.84h-40.98c-.47,0-.84.38-.84.84v10.86c0,.47.38.84.84.84h12.74c.46,0,.84.38.84.84v73.61c0,.47.38.84.84.84h12.12c.46,0,.84-.38.84-.84Z"/><path d="m728.63,320.97h12.12c.47,0,.84.38.84.84v86.15c0,.47-.38.84-.84.84h-12.12c-.47,0-.84-.38-.84-.84v-86.15c0-.47.38-.84.84-.84Z"/><path d="m779.97,408.1l13.05-86.15c.08-.51-.32-.97-.83-.97h-10.96c-.42,0-.78.31-.84.73l-8.23,61.99c-.13.98-1.54.98-1.67,0l-8.23-61.99c-.06-.42-.41-.73-.84-.73h-12.21c-.52,0-.91.46-.83.97l13.05,86.15c.06.41.42.72.83.72h16.87c.42,0,.77-.3.83-.72Z"/><path d="m824.82,320.97h-17.26c-.41,0-.76.3-.83.71l-14.03,86.15c-.08.51.31.98.83.98h11.07c.42,0,.78-.31.84-.73l2.18-15.74c.06-.42.42-.73.84-.73h14.47c.42,0,.78.31.84.73l2.18,15.74c.06.42.42.73.84.73h12.08c.52,0,.92-.47.83-.98l-14.03-86.15c-.07-.41-.42-.71-.83-.71Zm-3.89,58.73h-10.48c-.51,0-.91-.45-.84-.96l5.19-37.38c.13-.97,1.53-.97,1.67,0l5.3,37.38c.07.51-.32.96-.84.96Z"/><path d="m882.04,396.26h-21.03c-.47,0-.84-.38-.84-.84v-73.6c0-.47-.38-.84-.84-.84h-12.12c-.46,0-.84.38-.84.84v86.15c0,.47.38.84.84.84h34.83c.46,0,.84-.38.84-.84v-10.86c0-.47-.38-.84-.84-.84Z"/><path d="m589.68,436.03h-10.61c-.46,0-.84.38-.84.84v45.26c0,.99-1.41,1.17-1.66.22l-12.11-45.69c-.1-.37-.43-.63-.82-.63h-15.57c-.46,0-.84.38-.84.84v86.15c0,.47.38.84.84.84h10.61c.47,0,.84-.38.84-.84v-56.83c0-.99,1.4-1.17,1.66-.22l15.24,57.27c.1.37.43.63.81.63h12.44c.46,0,.84-.38.84-.84v-86.15c0-.47-.38-.84-.84-.84Z"/><path d="m620.76,434.78c-13.55,0-20.96,8.03-20.96,22.08v46.18c0,14.06,7.41,22.09,20.96,22.09s20.96-8.03,20.96-22.09v-46.18c0-14.05-7.41-22.08-20.96-22.08Zm7.15,69.14c0,6.28-2.76,8.66-7.15,8.66s-7.15-2.38-7.15-8.66v-47.93c0-6.28,2.76-8.66,7.15-8.66s7.15,2.38,7.15,8.66v47.93Z"/><path d="m690.81,436.03h-11.62c-.46,0-.84.38-.84.84v67.17c0,6.28-2.63,8.53-7.03,8.53s-7.03-2.26-7.03-8.53v-67.17c0-.47-.38-.84-.84-.84h-12.12c-.47,0-.84.38-.84.84v66.17c0,14.06,7.03,22.09,20.58,22.09s20.58-8.03,20.58-22.09v-66.17c0-.47-.38-.84-.84-.84Z"/><path d="m739.62,436.03h-40.98c-.46,0-.84.38-.84.84v10.86c0,.47.38.84.84.84h12.74c.46,0,.84.38.84.84v73.6c0,.47.38.84.84.84h12.12c.47,0,.84-.38.84-.84v-73.6c0-.47.38-.84.84-.84h12.74c.46,0,.84-.38.84-.84v-10.86c0-.47-.38-.84-.84-.84Z"/><rect x="747.12" y="436.03" width="13.8" height="87.84" rx=".84" ry=".84"/><path d="m790.53,434.78c-13.3,0-20.33,8.03-20.33,21.58v47.18c0,13.55,7.03,21.59,20.33,21.59s20.33-8.03,20.33-21.59v-10.95c0-.47-.38-.84-.84-.84h-11.36c-.46,0-.84.38-.84.84v11.96c0,5.77-2.76,8.03-6.9,8.03s-6.9-2.26-6.9-8.03v-49.06c0-5.77,2.76-8.16,6.9-8.16s6.9,2.38,6.9,8.16v9.32c0,.47.38.84.84.84h11.36c.46,0,.84-.38.84-.84v-8.44c0-13.55-7.03-21.58-20.33-21.58Z"/><path d="m832.48,436.03h-12.12c-.46,0-.84.38-.84.84v12.12c0,.47.38.84.84.84h3.93l-4.88,13.94c-.19.55.21,1.12.8,1.12h4.68c.32,0,.62-.19.76-.48l7.59-15.79c.06-.11.08-.24.08-.37v-11.39c0-.47-.38-.84-.84-.84Z"/><path d="m583.79,551.09h-37.47c-.46,0-.84.38-.84.84v10.87c0,.46.37.84.84.84h22.26c.6,0,1,.6.78,1.15l-25.07,61.69c-.04.1-.06.21-.06.32v11.29c0,.46.37.84.84.84h38.73c.46,0,.84-.38.84-.84v-10.87c0-.46-.37-.84-.84-.84h-23.51c-.6,0-1-.6-.78-1.15l25.07-61.69c.04-.1.06-.21.06-.32v-11.29c0-.46-.37-.84-.84-.84Z"/><path d="m592.99,551.09h12.13c.46,0,.84.38.84.84v86.16c0,.46-.38.84-.84.84h-12.13c-.46,0-.84-.38-.84-.84v-86.16c0-.46.38-.84.84-.84Z"/><path d="m645.07,583.66c-.06-.21-.04-.43.06-.62l15.66-30.73c.28-.56-.12-1.22-.75-1.22h-12.15c-.33,0-.63.19-.76.49l-15.49,33.79c-.38.82-1.6.55-1.6-.35v-33.09c0-.46-.38-.84-.84-.84h-12.13c-.46,0-.84.38-.84.84v86.16c0,.46.38.84.84.84h12.13c.46,0,.84-.38.84-.84v-26.56c0-.13.03-.26.09-.38l4.6-9c.34-.67,1.33-.58,1.55.14l10.77,36.05c.11.36.43.6.8.6h12.68c.56,0,.96-.54.8-1.08l-16.27-54.19Z"/><path d="m446.7,467.75c0-19.98-3.92-39.37-11.64-57.62-7.46-17.63-18.13-33.46-31.72-47.05-13.59-13.59-29.42-24.27-47.05-31.72-18.26-7.72-37.64-11.64-57.63-11.64s-39.37,3.92-57.62,11.64c-17.63,7.46-33.46,18.13-47.05,31.72-13.59,13.59-24.26,29.42-31.72,47.05-7.72,18.26-11.64,37.64-11.64,57.62,0,21.21,4.39,41.69,13.06,60.87,1.88,4.15,6.77,6,10.92,4.13,4.16-1.88,6-6.77,4.13-10.92-7.69-17.03-11.59-35.23-11.59-54.08,0-72.52,59-131.53,131.52-131.53s131.52,59,131.52,131.53c0,41.59-20.01,81.18-53.52,105.91-3.67,2.71-4.45,7.87-1.74,11.54,1.62,2.19,4.12,3.35,6.65,3.35,1.7,0,3.42-.52,4.89-1.61,18.27-13.48,33.41-31.24,43.8-51.36,5.3-10.27,9.39-21.16,12.15-32.38,2.84-11.54,4.27-23.46,4.27-35.45Z"/><path d="m400.53,520.24c4.1-7.95,7.27-16.38,9.4-25.06,2.2-8.93,3.31-18.16,3.31-27.43,0-15.46-3.03-30.47-9.01-44.6-5.77-13.64-14.03-25.9-24.55-36.41-10.52-10.52-22.77-18.78-36.41-24.55-14.13-5.98-29.14-9.01-44.6-9.01s-30.47,3.03-44.6,9.01c-13.64,5.77-25.89,14.03-36.42,24.55-10.52,10.52-18.78,22.77-24.55,36.41-5.98,14.13-9.01,29.14-9.01,44.6,0,16.41,3.4,32.26,10.1,47.11,1.88,4.15,6.77,6,10.92,4.13,4.16-1.88,6-6.77,4.13-10.92-5.73-12.7-8.64-26.26-8.64-40.32,0-54.07,43.99-98.06,98.06-98.06s98.06,43.99,98.06,98.06c0,31.01-14.92,60.52-39.9,78.96-3.67,2.71-4.45,7.87-1.74,11.54,1.62,2.19,4.12,3.35,6.65,3.35,1.7,0,3.42-.52,4.89-1.61,14.14-10.43,25.86-24.18,33.9-39.75Z"/><path d="m298.67,302.73c4.57,0,8.27-3.7,8.27-8.27s-3.7-8.27-8.27-8.27-8.27,3.7-8.27,8.27,3.7,8.27,8.27,8.27Z"/><path d="m216.16,324.84c3.95-2.28,5.31-7.34,3.02-11.29-2.28-3.95-7.34-5.31-11.29-3.03-3.95,2.28-5.31,7.34-3.03,11.29,2.28,3.95,7.34,5.31,11.3,3.03Z"/><path d="m155.76,385.24c2.28-3.95.93-9.01-3.03-11.29-3.95-2.28-9.01-.93-11.29,3.03-2.28,3.95-.93,9.01,3.03,11.29s9.01.93,11.29-3.03Z"/><path d="m125.38,459.48c-4.57,0-8.27,3.7-8.27,8.27s3.7,8.27,8.27,8.27,8.27-3.7,8.27-8.27-3.7-8.27-8.27-8.27Z"/><path d="m452.87,547.23c-3.95-2.28-9.01-.93-11.29,3.03-2.28,3.95-.93,9.01,3.03,11.29s9.01.93,11.29-3.03c2.28-3.95.93-9.01-3.03-11.29Z"/><path d="m471.96,459.48c-4.57,0-8.27,3.7-8.27,8.27s3.7,8.27,8.27,8.27,8.27-3.7,8.27-8.27-3.7-8.27-8.27-8.27Z"/><path d="m444.61,373.95c-3.95,2.28-5.31,7.34-3.03,11.29,2.28,3.95,7.34,5.31,11.29,3.03s5.31-7.34,3.03-11.29c-2.28-3.95-7.34-5.31-11.29-3.03Z"/><path d="m381.18,324.84c3.95,2.28,9.01.93,11.29-3.03s.93-9.01-3.03-11.29-9.01-.93-11.29,3.03c-2.28,3.95-.93,9.01,3.03,11.29Z"/><path d="m227.75,557.83c-15.17,0-25.16,12.8-25.16,27.97,0,32.93,52.35,60.01,60.74,64.38-20.91-1.71-37.91,31.45-44,45.12-1.59,3.58-2.42,7.45-2.42,11.36v6.08c0,.59.48,1.06,1.06,1.06h17.93c.52,0,.95-.43.95-.95v-9.28c0-.3-.13-.59-.35-.78l-3.77-3.35c-.31-.27-.4-.71-.24-1.08,2.1-4.82,16.75-35.54,47.56-32.8,51.47,5.13-18.87-106.58-52.29-107.73Z"/><path d="m317.5,530.14c.61-.69.71-1.74.14-2.54l-3.14-4.37c-.49-.68-1.36-.95-2.15-.68l-5.65-8.33.99-.72c.75-.55.92-1.6.38-2.36l-3.33-4.64c-.61-.85-1.78-1.09-2.68-.54l-.68.42-4.75-7c-.31-.46-.93-.6-1.41-.31l-1.54.93c-.51.3-.68.96-.39,1.47l4.13,7.33-24.73,15.09c-.8.49-1.12,1.5-.75,2.36.85,1.97,1.72,3.73,2.48,5.17.46.86,1.49,1.24,2.4.87l11.19-4.55c.16-.06.3-.14.44-.24l13.84-10.07,4.22,7.49-31.53,12.81c-.9.36-1.92.03-2.43-.8-3.31-5.46-14.23-25.49-6.13-40.08,1.9-3.42,2.32-7.48,1.17-11.22-.73-2.4-1.33-4.96-1.99-8.05-.28-1.3-1.69-2.01-2.89-1.46-20.72,9.43-28.44,9.75-37.73,52.69-8.13,37.54-44.81,24.96-51.34,22.39-.41-.16-.82.22-.68.64,4.04,12.46,17.45,16.12,24.56,17.2,1.33.2,2.66.3,4,.3.37,0,.71-.21.89-.54,1.07-1.97,2.33-3.81,3.78-5.49,5.45-6.32,13.1-9.8,21.56-9.8h.15c6.29.22,13.58,3.49,21.68,9.73.7.54,1.72.02,1.69-.87-1.06-31.29,5.12-19.29,5.12-19.29l7.48,12.41c.56.94,1.76,1.28,2.73.78l44.73-22.8,37.52,66.55c.56,1,1.84,1.34,2.83.75l7.88-4.74c1.02-.62,1.32-1.96.65-2.95l-42.7-62.93Z"/><path d="m269.23,683.71c-.09-.3-.31-.56-.6-.69l-3.69-1.68c-.44-.2-.7-.66-.64-1.15.15-1.25.53-3.84,1.38-7.14.21-.82-.58-1.54-1.38-1.25-4.13,1.49-7.78,3.67-10.97,6.17-.2.16-.34.4-.37.65-.13.94-.25,1.82-.34,2.62-.41,3.36-.11,6.76.88,9.99l1.48,4.84c.18.59.81.92,1.39.74l14.36-4.4c.59-.18.92-.8.74-1.39l-2.24-7.3Z"/><path d="m275.91,587.6c-.96-.76-2.23.47-1.48,1.45.56.74,1.12,1.48,1.68,2.23,7.63,10.26,14.15,21.08,18.85,31.29,2.47,5.36,4.37,10.43,5.66,15.09.04.13.07.27.11.4.19.68.97.99,1.58.62,14.35-8.78-3.39-32.8-26.4-51.07Z"/><path d="m265.4,421.59c8.44-4.7,17.43-3.11,23.42,2.04.83.71,2.05-.23,1.57-1.21-.5-1.03-1.09-2.01-1.75-2.95-3.44-4.84-8.6-7.92-14.52-8.68-.31-.04-.62-.07-.94-.1-.28-.02-.55,0-.85.02-9.96,1.23-18.05,7.48-22.07,15.89,0,0-7.52,16.96,7.65,25.73,1.15.67,2.4-.72,1.62-1.81-2.08-2.91-4.02-7.32-3.71-13.48.33-6.42,3.97-12.31,9.58-15.44Z"/><path d="m280.49,396.86c-12.89-3.31-25.79.76-34.45,9.43,0,0-16.13,17.13-1.7,34.01,1.1,1.29,3.2.17,2.72-1.46-.72-2.48-1.18-5.53-.9-9.04,1.17-14.36,14.22-25.17,28.5-23.34,14.87,1.91,24.69,16.03,21.67,30.41-.82,3.89-2.49,7.38-4.78,10.33-.93,1.19-2.07,2.21-3.36,2.99l-13.46,8.21c-1.05.64-1.95,1.5-2.63,2.54-8.81,13.52,4.91,36.48,8.98,41.01.02.03.04.05.07.07.19.16.46.15.65,0,32.04-27.15,27.23-46.27,22.22-54.55-.09-.15-.1-.32-.03-.48,1.4-2.97,2.41-6.18,2.97-9.59,2.97-18.19-8.63-35.95-26.48-40.54Z"/></svg>